<svg xmlns="http://www.w3.org/2000/svg" viewBox="0 0 100 100">
  <path fill="#c8ede6" d="M87.234,55.551c0.3-0.616,0.566-1.264,0.796-1.943c2.633-7.77-1.349-17.078-9.733-19.325 C77.391,22.9,69.391,15.09,60.356,13.758c-10.341-1.525-19.814,5.044-22.966,15.485c-3.799-1.346-7.501-1.182-10.99,0.857 c-1.583,0.732-3.031,1.812-4.33,3.233c-1.907,2.086-3.147,4.719-3.652,7.495c-0.748,0.118-1.483,0.236-2.176,0.484 c-4.04,1.449-6.589,4.431-7.288,8.923c-0.435,2.797,0.443,5.587,0.933,6.714c1.935,4.455,6.422,6.98,10.981,6.312 c0.227-0.033,0.557,0.069,0.752,0.233c0.241,7.12,3.698,13.417,8.884,17.014c8.321,5.772,19.027,3.994,25.781-3.921 c2.894,2.96,6.338,4.398,10.384,3.876c4.023-0.519,7.147-2.739,9.426-6.349c1.053,0.283,2.051,0.691,3.083,0.804 c4.042,0.442,7.297-1.184,9.732-4.8c0.083-0.124,0.203-0.219,0.306-0.328c0.348-0.798,0.696-1.596,1.044-2.394 c0.155-1.211,0.429-2.423,0.443-3.632C90.742,60.508,89.411,57.54,87.234,55.551z" />
  <path fill="#fff" d="M18.899 46H8.869c-.276 0-.5-.224-.5-.5s.224-.5.5-.5h10.03c.276 0 .5.224.5.5S19.176 46 18.899 46zM22.28 45.5c0-.276-.224-.5-.5-.5h-1.446c-.276 0-.5.224-.5.5s.224.5.5.5h1.446C22.057 46 22.28 45.776 22.28 45.5zM26.335 45.5c0-.276-.224-.5-.5-.5h-2.546c-.276 0-.5.224-.5.5s.224.5.5.5h2.546C26.112 46 26.335 45.776 26.335 45.5zM26.335 47.5c0-.276-.224-.5-.5-.5h-9.616c-.276 0-.5.224-.5.5s.224.5.5.5h9.616C26.112 48 26.335 47.776 26.335 47.5zM14.987 47.5c0-.276-.224-.5-.5-.5h-.58c-.276 0-.5.224-.5.5s.224.5.5.5h.58C14.763 48 14.987 47.776 14.987 47.5zM12.611 47.5c0-.276-.224-.5-.5-.5h-1.457c-.276 0-.5.224-.5.5s.224.5.5.5h1.457C12.387 48 12.611 47.776 12.611 47.5zM21.746 43.5c0-.276-.224-.5-.5-.5h-5.027c-.276 0-.5.224-.5.5s.224.5.5.5h5.027C21.523 44 21.746 43.776 21.746 43.5zM21.746 41.5c0-.276-.224-.5-.5-.5h-1.257c-.276 0-.5.224-.5.5s.224.5.5.5h1.257C21.523 42 21.746 41.776 21.746 41.5zM18.477 49.5c0-.276-.224-.5-.5-.5h-1.758c-.276 0-.5.224-.5.5s.224.5.5.5h1.758C18.254 50 18.477 49.776 18.477 49.5zM82.744 59h-10.03c-.276 0-.5-.224-.5-.5s.224-.5.5-.5h10.031c.276 0 .5.224.5.5S83.021 59 82.744 59zM86.125 58.5c0-.276-.224-.5-.5-.5h-1.446c-.276 0-.5.224-.5.5s.224.5.5.5h1.446C85.902 59 86.125 58.776 86.125 58.5zM90.18 58.5c0-.276-.224-.5-.5-.5h-2.546c-.276 0-.5.224-.5.5s.224.5.5.5h2.546C89.956 59 90.18 58.776 90.18 58.5zM88.154 54.5c0-.276-.224-.5-.5-.5h-9.616c-.276 0-.5.224-.5.5s.224.5.5.5h9.616C87.93 55 88.154 54.776 88.154 54.5zM76.806 54.5c0-.276-.224-.5-.5-.5h-.58c-.276 0-.5.224-.5.5s.224.5.5.5h.58C76.583 55 76.806 54.776 76.806 54.5zM74.429 54.5c0-.276-.224-.5-.5-.5h-1.456c-.276 0-.5.224-.5.5s.224.5.5.5h1.456C74.206 55 74.429 54.776 74.429 54.5zM85.591 56.5c0-.276-.224-.5-.5-.5h-5.027c-.276 0-.5.224-.5.5s.224.5.5.5h5.027C85.367 57 85.591 56.776 85.591 56.5zM85.591 54.5c0-.276-.224-.5-.5-.5h-1.257c-.276 0-.5.224-.5.5s.224.5.5.5h1.257C85.367 55 85.591 54.776 85.591 54.5zM79.108 56.5c0-.276-.224-.5-.5-.5H76.85c-.276 0-.5.224-.5.5s.224.5.5.5h1.758C78.885 57 79.108 56.776 79.108 56.5z" />
  <path fill="#fdfcef" d="M78.511,32.287c1.883,0,3.517,0,3.54,0c2.11,0,3.821-1.674,3.821-3.739 c0-1.802-1.302-3.305-3.035-3.66c0.02-0.158,0.034-0.317,0.034-0.48c0-2.139-1.772-3.873-3.957-3.873 c-1.29,0-2.433,0.607-3.155,1.543c-0.185-2.381-2.358-4.218-4.9-3.913c-1.859,0.223-3.397,1.629-3.739,3.431 c-0.11,0.578-0.098,1.139,0.011,1.665c-0.498-0.525-1.208-0.856-1.998-0.856c-1.446,0-2.627,1.102-2.72,2.494 c-0.657-0.142-1.371-0.133-2.123,0.143c-1.438,0.528-2.462,1.853-2.522,3.356c-0.085,2.133,1.657,3.889,3.818,3.889 c0.164,0,0.741,0,0.874,0h7.934 M72.034,32.287h0.36" />
  <path fill="#472b29" d="M82.051,32.788h-3.54c-0.276,0-0.5-0.224-0.5-0.5s0.224-0.5,0.5-0.5h3.54 c1.831,0,3.321-1.453,3.321-3.239c0-1.524-1.108-2.858-2.636-3.17c-0.256-0.053-0.429-0.294-0.396-0.554 c0.018-0.137,0.03-0.275,0.03-0.417c0-1.86-1.551-3.373-3.457-3.373c-1.092,0-2.098,0.491-2.76,1.349 c-0.126,0.164-0.341,0.231-0.539,0.174c-0.198-0.06-0.339-0.234-0.355-0.44c-0.079-1.02-0.565-1.944-1.369-2.604 c-0.829-0.68-1.885-0.979-2.973-0.853c-1.646,0.197-3.006,1.442-3.307,3.027c-0.094,0.495-0.091,0.99,0.009,1.472 c0.045,0.219-0.06,0.441-0.258,0.545c-0.197,0.102-0.44,0.063-0.594-0.1c-0.428-0.451-1.009-0.7-1.635-0.7 c-1.169,0-2.145,0.891-2.221,2.027c-0.01,0.146-0.082,0.278-0.198,0.366c-0.116,0.087-0.264,0.12-0.406,0.089 c-0.639-0.138-1.243-0.098-1.846,0.125c-1.262,0.463-2.144,1.631-2.195,2.905c-0.035,0.876,0.283,1.709,0.895,2.346 c0.635,0.66,1.496,1.024,2.423,1.024h8.807c0.276,0,0.5,0.224,0.5,0.5s-0.224,0.5-0.5,0.5h-8.807 c-1.185,0-2.331-0.485-3.144-1.331c-0.803-0.836-1.219-1.929-1.173-3.078c0.067-1.675,1.212-3.204,2.849-3.806 c0.61-0.225,1.24-0.304,1.88-0.244c0.344-1.396,1.629-2.424,3.135-2.424c0.493,0,0.977,0.113,1.414,0.323 c0.009-0.242,0.037-0.484,0.083-0.727c0.381-2.009,2.096-3.585,4.17-3.833c1.365-0.167,2.685,0.218,3.726,1.071 c0.748,0.613,1.278,1.409,1.546,2.302c0.791-0.648,1.786-1.007,2.842-1.007c2.458,0,4.457,1.962,4.457,4.373 c0,0.034,0,0.068-0.001,0.103c1.764,0.555,3.003,2.188,3.003,4.038C86.372,30.886,84.434,32.788,82.051,32.788z M72.394,32.788 h-0.36c-0.276,0-0.5-0.224-0.5-0.5s0.224-0.5,0.5-0.5h0.36c0.276,0,0.5,0.224,0.5,0.5S72.67,32.788,72.394,32.788z" />
  <path fill="#472b29" d="M80.344 26.984c-.018 0-.036-.002-.055-.006-.135-.03-.22-.164-.189-.299.037-.164.094-.325.17-.479.604-1.224 2.272-1.677 3.722-1.007.125.058.18.206.122.331-.058.126-.207.179-.332.122-1.201-.556-2.577-.208-3.063.774-.058.118-.102.242-.13.367C80.562 26.905 80.459 26.984 80.344 26.984zM75.185 32.788h-1.107c-.276 0-.5-.224-.5-.5s.224-.5.5-.5h1.107c.276 0 .5.224.5.5S75.462 32.788 75.185 32.788z" />
  <path fill="#fabf82" d="M67.884,65.203c-0.671-0.474-9.276-3.491-9.276-3.491c-0.547-0.147-0.851-0.595-0.949-1.095 c-0.276-1.416-0.243-4.822-0.236-5.43c0.001-0.048-0.043-0.084-0.097-0.084h-0.325h-7.979h-0.325c-0.054,0-0.097,0.037-0.097,0.084 c0.006,0.602,0.034,3.939-0.236,5.43c-0.091,0.502-0.402,0.948-0.949,1.095l-7.034,2.447c-0.704,0.195-1.381,0.474-1.975,0.863 c-3.105,2.031-3.194,5.355-3.323,5.974c-0.011,0.053,0.035,0.101,0.095,0.101h17.833h17.833c0.061,0,0.106-0.048,0.095-0.101 C70.816,70.394,70.77,67.244,67.884,65.203z" />
  <path fill="#472b29" d="M57.327,55.097c0.054,0,0.097,0.036,0.097,0.084c-0.007,0.605-0.04,3.993,0.236,5.401 c0.098,0.498,0.402,0.943,0.949,1.089c0,0,8.605,3,9.276,3.473c2.886,2.031,2.932,5.165,3.057,5.761 c0.011,0.053-0.035,0.1-0.095,0.1H53.013H35.18c-0.061,0-0.106-0.048-0.095-0.1c0.129-0.616,0.218-3.922,3.323-5.942 c0.594-0.387,1.271-0.663,1.975-0.858l7.034-2.434c0.547-0.146,0.858-0.59,0.949-1.089c0.27-1.483,0.242-4.803,0.236-5.401 c-0.001-0.048,0.043-0.084,0.096-0.084h0.325h7.979L57.327,55.097 M57.327,54.102h-0.325h-7.979h-0.325 c-0.294,0-0.58,0.118-0.785,0.324c-0.204,0.206-0.315,0.477-0.312,0.766c0.02,1.827-0.028,4.158-0.22,5.212 c-0.047,0.259-0.181,0.294-0.225,0.306l-0.035,0.009l-0.034,0.012l-7.005,2.424c-0.842,0.235-1.59,0.563-2.223,0.975 c-3.139,2.042-3.577,5.276-3.721,6.338c-0.014,0.101-0.023,0.181-0.034,0.234c-0.066,0.317,0.014,0.644,0.22,0.895 C34.533,71.854,34.844,72,35.178,72h17.833h17.833c0.334,0,0.645-0.146,0.854-0.402c0.206-0.252,0.286-0.578,0.22-0.895 c-0.011-0.055-0.02-0.136-0.034-0.24c-0.144-1.119-0.525-4.09-3.425-6.131c-0.683-0.48-6.259-2.461-9.522-3.599l-0.035-0.012 l-0.036-0.01c-0.043-0.012-0.174-0.047-0.227-0.319c-0.195-0.995-0.24-3.338-0.217-5.199c0.003-0.288-0.107-0.561-0.312-0.766 C57.907,54.22,57.621,54.102,57.327,54.102L57.327,54.102z" />
  <path fill="#fdfcef" d="M68.004,65.108c-0.673-0.482-1.449-0.836-2.271-1.067l-0.865-0.233 c0.006-0.002,0.012-0.003,0.017-0.005l-4.508-1.483c-2.287,0.623-4.741,0.965-7.299,0.965s-5.012-0.343-7.299-0.965l-4.508,1.483 c0.006,0.002,0.012,0.003,0.018,0.005l-0.887,0.239c-0.707,0.198-1.386,0.481-1.982,0.876c-3.117,2.064-3.206,5.441-3.335,6.069 c-0.011,0.054,0.035,0.102,0.095,0.102h17.898h17.898c0.061,0,0.106-0.049,0.095-0.102C70.946,70.383,70.901,67.183,68.004,65.108z" />
  <path fill="#97aec7" d="M51.046,67.881l-1.95-4.255h7.808l-1.95,4.255C54.086,69.385,51.914,69.385,51.046,67.881z" />
  <path fill="#eaeae8" d="M61.539 62.702l-1.162-.382c-2.213.603-4.585.935-7.054.957L53 63.678l4.332 5.373L61.539 62.702zM53 63.678l-.328-.407c-2.411-.035-4.728-.363-6.893-.951l-1.291.425 4.179 6.306L53 63.678z" />
  <path fill="#66798f" d="M50.886,69.792l-0.201,1.302h2.393h2.237l-0.201-1.302C54.174,68.088,51.826,68.088,50.886,69.792z" />
  <path fill="#472b29" d="M35.18 71.246c-.028 0-.057-.008-.082-.024-.069-.046-.089-.139-.043-.208l4.825-7.383c.045-.069.139-.09.208-.044s.089.139.043.208l-4.825 7.383C35.277 71.221 35.229 71.246 35.18 71.246zM36.666 71.494c-.028 0-.057-.008-.082-.024-.069-.046-.089-.139-.043-.208l5.388-8.244c.045-.07.139-.09.208-.044s.089.139.043.208l-5.388 8.244C36.763 71.469 36.715 71.494 36.666 71.494zM38.504 71.246c-.028 0-.057-.008-.082-.024-.069-.046-.089-.139-.043-.208l5.388-8.244c.045-.069.139-.089.208-.044.069.046.089.139.043.208l-5.388 8.244C38.601 71.221 38.553 71.246 38.504 71.246zM39.475 72.244c-.028 0-.057-.008-.082-.024-.069-.046-.089-.139-.043-.208l5.388-8.244c.046-.07.139-.09.208-.044s.089.139.043.208l-5.388 8.244C39.571 72.219 39.523 72.244 39.475 72.244zM41.561 71.676c-.028 0-.057-.008-.082-.024-.069-.046-.089-.139-.043-.208l3.828-5.857c.045-.069.139-.089.208-.044.069.046.089.139.043.208l-3.828 5.857C41.657 71.652 41.61 71.676 41.561 71.676zM43.172 71.86c-.028 0-.057-.008-.082-.024-.069-.046-.089-.139-.043-.208l1.914-2.929c.045-.069.138-.089.208-.044.069.046.089.139.043.208l-1.914 2.929C43.269 71.836 43.221 71.86 43.172 71.86z" />
  <path fill="#edbc94" d="M65.418,41.174c-0.117-0.008-0.236-0.009-0.36-0.009c-0.965-0.046-1.24,0.334-1.196-0.256 c0.078-1.046-0.07-5.29-0.07-5.504c0-4.398-4.653-7.984-10.466-8.183v-0.013c-0.039,0.001-0.077,0.005-0.117,0.006 c-0.039-0.001-0.077-0.006-0.117-0.006v0.013c-5.814,0.199-10.466,3.785-10.466,8.183c0,0.214-0.148,4.458-0.07,5.504 c0.044,0.589-0.231,0.209-1.196,0.256c-0.124,0-0.243,0.001-0.36,0.009c-1.058,0.07-1.914,0.734-2.097,1.557 c0.13,0.078,0.611,3.682,1.391,5.102c0.436,0.793,1.116,0.903,1.815,1.415c0.387,0.284,0.462,0.603,0.568,1.027 c0.392,1.569,1.481,2.903,2.674,4.042c0.589,0.562,4.499,4.675,7.858,4.467c3.375-0.125,7.269-3.905,7.858-4.467 c1.193-1.139,2.282-2.473,2.674-4.042c0.106-0.424,0.18-0.744,0.568-1.027c0.699-0.512,1.379-0.622,1.815-1.415 c0.78-1.42,1.262-5.024,1.391-5.102C67.332,41.908,66.476,41.243,65.418,41.174z" />
  <path fill="#512c2b" d="M53.269 49.059c.683 0 1.345-.298 1.771-.797.043-.05.037-.126-.013-.169l0 0c-.05-.043-.125-.038-.169.012-.347.397-.927.625-1.589.625-.663 0-1.242-.228-1.589-.625-.024-.027-.057-.041-.091-.041-.028 0-.056.01-.078.029-.05.043-.056.119-.013.169C51.924 48.761 52.586 49.059 53.269 49.059zM51.091 38.833l.433-.832c-1.832-.429-3.941-.361-5.682.179l.546.811C47.819 38.519 49.579 38.459 51.091 38.833zM60.262 38.833l.433-.832c-1.832-.429-3.941-.361-5.682.179l.546.811C56.991 38.519 58.751 38.459 60.262 38.833zM48.454 40.007c-.44 0-.826.291-1.049.731.056-.017.113-.029.174-.029.361 0 .653.327.653.729 0 .403-.293.729-.653.729-.118 0-.227-.038-.323-.099.154.661.632 1.142 1.199 1.142.691 0 1.252-.717 1.252-1.602C49.706 40.725 49.145 40.007 48.454 40.007zM58.031 40.007c-.376 0-.712.213-.941.548.072-.03.149-.049.23-.049.361 0 .653.327.653.729 0 .403-.293.729-.653.729-.224 0-.421-.126-.539-.318.016.867.569 1.563 1.25 1.563.691 0 1.252-.717 1.252-1.602C59.282 40.725 58.722 40.007 58.031 40.007zM58.562 50.915c.051-.042.059-.117.018-.168l0 0c-.041-.051-.117-.06-.169-.018-1.128.899-3.002 1.415-5.141 1.415s-4.013-.516-5.142-1.416c-.022-.018-.048-.026-.075-.026-.035 0-.07.015-.094.045-.041.051-.034.127.017.169 1.274 1.041 3.253 1.663 5.293 1.663C55.309 52.578 57.287 51.957 58.562 50.915z" />
  <path fill="#d3a47d" d="M65.48 45.881l-.597-.067.201-1.779-1.011.438-.238-.551 1.486-.644c.098-.042.211-.029.297.034.086.063.132.168.12.275L65.48 45.881zM41.262 45.539l-.258-2.294c-.012-.106.034-.211.12-.275.086-.064.2-.078.297-.034l1.486.644-.238.551-1.011-.438.201 1.779L41.262 45.539z" />
  <path fill="#472b29" d="M42.602 49.98c-.001 0-.002 0-.004 0-.11-.002-.198-.094-.196-.204l.165-8.647c.002-.11.074-.21.204-.196.11.002.198.094.196.204l-.165 8.647C42.799 49.893 42.71 49.98 42.602 49.98zM63.981 49.98c-.109 0-.198-.087-.2-.196l-.164-8.647c-.002-.11.086-.202.196-.204.001 0 .003 0 .004 0 .109 0 .198.087.2.196l.164 8.647c.002.11-.086.202-.196.204C63.983 49.98 63.982 49.98 63.981 49.98zM59.731 55.4c-1.793 1.227-5.171 1.906-5.823.844-.478-.779-1.169-.779-1.647 0-.711 1.158-4.33-.04-6.184-1.366-.521.026-.012.176-.422.538 2.423 2.08 7.159 4.911 7.416 4.821 0 0 .012.008.014.007l.014-.007c.242.005 4.338-2.365 6.864-4.383C59.608 55.422 60.3 55.41 59.731 55.4z" />
  <path fill="#472b29" d="M63.476,29.905c0,0,2.184,0.443,2.119,2.595c-0.064,2.152-1.56,11.504-1.56,11.504l-3.064-9.606 L63.476,29.905L63.476,29.905z" />
  <path fill="#472b29" d="M51.916,23.893l-1.156-1.582c0,0,12.992-1.419,12.973,5.632 c-0.024,9.367-8.478,11.327-8.478,11.327l0.642-2.531l-5.073,2.658l0.642-1.519l-4.238,1.519l1.541-3.48l-3.789,1.392 c0,0-1.485,3.698-2.031,6.695c0,0-2.948-9.913-1.052-10.682l-0.706-0.38l0.899-1.772l-1.349-0.57l1.156-1.645l-0.514-0.696 l2.569-1.455l-1.349-0.696C42.603,26.108,46.906,22.564,51.916,23.893L51.916,23.893z" />
  <g>
    <path fill="#66798f" d="M51.892 40.476c-1.991-2.426-9.496-.706-9.504-.707.138.548.257 1.089.366 1.624.557.058.59 1.31.646 1.768.27 2.212 1.75 3.843 4.867 3.766 3.123-.162 3.853-2.423 3.982-3.846C52.388 41.528 51.891 40.481 51.892 40.476zM51.536 43.194c-.161 1.983-1.378 3.143-3.346 3.238-.199.011-.393.012-.578.004-3.102-.006-3.632-2.72-3.693-4.437-.04-.983.662-1.824 1.652-1.922.569-.056 1.21-.056 1.951-.056 2.318 0 3.326.553 3.595.997C51.274 41.283 51.626 42.117 51.536 43.194zM54.09 43.081c.129 1.423.859 3.684 3.982 3.846 3.117.077 4.597-1.554 4.867-3.766.055-.458.088-1.71.646-1.768.108-.535.228-1.076.366-1.624-.008.001-7.513-1.72-9.504.707C54.446 40.481 53.949 41.528 54.09 43.081zM55.221 41.019c.268-.444 1.277-.997 3.595-.997.74 0 1.381 0 1.951.056.99.098 1.692.939 1.652 1.922-.061 1.717-.592 4.431-3.693 4.437-.185.008-.379.006-.578-.004-1.969-.095-3.185-1.256-3.346-3.238C54.712 42.117 55.063 41.283 55.221 41.019z" />
    <g>
      <path fill="#66798f" d="M54.515,42.382c0,0-0.509-0.402-1.399-0.401c-0.834,0-1.294,0.401-1.294,0.401 c-0.136-0.376-0.272-0.752-0.409-1.127c1.17,0,2.34,0,3.51,0C54.787,41.631,54.651,42.006,54.515,42.382z" />
    </g>
  </g>
  <g>
    <path fill="#472b29" d="M65.903,41.011c-0.458-0.116-0.944-0.127-1.459-0.191c0-0.055-0.131,0.059-0.131,0.004 c-0.325-0.032-0.497-0.416-0.502-0.817c-0.009-0.809-0.11-1.696-0.038-2.544c0.021-0.765-0.116-1.254-0.263-1.796 c0.023-0.222,0.037-0.446,0.037-0.673c0-4.639-4.79-8.413-10.677-8.413s-10.677,3.774-10.677,8.413 c0,0.22,0.014,0.437,0.036,0.652c-0.058,0.839-0.135,1.586-0.098,2.503c0.033,0.812-0.082,1.415-0.006,2.487 c0.043,0.604-0.225,0.215-1.164,0.262c-0.12,0-0.236,0.001-0.35,0.009c-1.277,0.088-2.253,1.114-2.05,2.224 c0.235,1.286,0.516,2.565,0.834,3.835c0.315,1.256,0.936,2.285,2.442,2.431c0.194,1.634,0.54,2.464,1.57,3.752 c1.399,1.75,3.058,3.242,5.063,4.33c0.208,0.113,1.44,0.795,1.44,0.786c2.097,0.867,4.108,0.94,6.23-0.042 c0,0.008,0,0.016,0,0.025c0.013-0.008,1.336-0.666,1.586-0.834c1.006-0.676,2.032-1.352,2.917-2.16 c1.755-1.602,3.411-3.3,3.584-5.862c1.488-0.134,2.105-1.148,2.423-2.375c0.311-1.202,0.537-2.425,0.788-3.641 C67.678,42.21,67.112,41.316,65.903,41.011z M41.833,48.515c-0.746,0.019-1.24-0.275-1.501-1.109 c-0.358-1.143-0.892-3.528-0.898-3.549c-0.564-1.739,0.501-2.511,2.399-2.146v1.01c-0.009,0-0.019,0.839,0.001,0.843 L41.833,48.515L41.833,48.515z M63.402,49.708c-0.004,0.451-0.079,0.96-0.305,1.343c-2.081,3.523-5.01,6.085-9.207,7.102 c-1.456,0.353-2.82-0.154-4.087-0.761c-2.653-1.272-4.776-3.139-6.398-5.516c-0.531-0.779-0.816-1.615-0.775-2.572 c0.054-1.264,0.013-2.532,0.013-3.799c0-0.156,0.012-0.312-0.002-0.466c-0.312-3.477,0.411-9.918,0.411-10.045 c0-4.187,4.404-7.593,9.818-7.593s9.995,3.406,9.995,7.593c0,0.086,0.034,0.187,0.031,0.272c0.371,0.355,0.097,3.739,0.482,5.446 c0.043,0.193,0.036,0.398,0.036,0.597C63.417,44.109,63.429,46.909,63.402,49.708z M66.738,43.086 c-0.276,1.458-0.612,2.909-1.021,4.338c-0.231,0.807-0.666,1.05-1.492,1.128v-4.977c0.002-0.001,0.004-0.001,0.005-0.001 c-0.001-0.016-0.004-0.03-0.004-0.047v-1.051c-0.006-0.003-0.012-0.006-0.018-0.009v-0.839c0.444,0,0.857-0.027,1.266,0.006 C66.3,41.701,66.886,42.301,66.738,43.086z" />
  </g>
  <g>
    <path fill="#fdfcef" d="M31.17,80.34c0,0,11.691,0,11.762,0c2.7,0,4.888-2.189,4.888-4.889 c0-2.355-1.666-4.321-3.884-4.784c0.026-0.206,0.043-0.415,0.043-0.628c0-2.796-2.267-5.063-5.063-5.063 c-1.651,0-3.113,0.794-4.037,2.017c-0.236-3.113-3.017-5.514-6.27-5.116c-2.379,0.291-4.346,2.13-4.784,4.486 c-0.14,0.756-0.126,1.489,0.014,2.177c-0.638-0.687-1.546-1.119-2.557-1.119c-1.85,0-3.361,1.441-3.48,3.261 c-0.84-0.186-1.754-0.174-2.717,0.188c-1.84,0.691-3.15,2.423-3.227,4.387c-0.109,2.789,2.12,5.085,4.885,5.085 c0.21,0,0.948,0,1.118,0h10.151" />
    <path fill="#472b29" d="M42.932,80.84H31.17c-0.276,0-0.5-0.224-0.5-0.5s0.224-0.5,0.5-0.5h11.762 c2.42,0,4.389-1.969,4.389-4.389c0-2.066-1.466-3.873-3.486-4.295c-0.255-0.053-0.426-0.293-0.394-0.552 c0.023-0.186,0.039-0.374,0.039-0.565c0-2.517-2.047-4.563-4.562-4.563c-1.438,0-2.765,0.663-3.638,1.818 c-0.125,0.166-0.338,0.237-0.54,0.178c-0.199-0.059-0.342-0.234-0.357-0.441c-0.104-1.377-0.779-2.671-1.85-3.549 c-1.083-0.888-2.456-1.282-3.86-1.109c-2.166,0.266-3.956,1.943-4.353,4.081c-0.124,0.667-0.12,1.335,0.013,1.986 c0.044,0.22-0.062,0.442-0.262,0.544c-0.2,0.104-0.443,0.06-0.595-0.104c-0.575-0.618-1.353-0.959-2.19-0.959 c-1.569,0-2.878,1.228-2.981,2.794c-0.01,0.146-0.082,0.279-0.199,0.366c-0.117,0.089-0.268,0.12-0.408,0.089 c-0.841-0.185-1.637-0.132-2.433,0.167c-1.669,0.627-2.835,2.209-2.903,3.938c-0.047,1.207,0.387,2.35,1.221,3.218 c0.835,0.869,1.959,1.348,3.164,1.348h11.269c0.276,0,0.5,0.224,0.5,0.5s-0.224,0.5-0.5,0.5H16.745 c-1.479,0-2.858-0.588-3.884-1.654c-1.025-1.066-1.558-2.469-1.5-3.95c0.083-2.126,1.51-4.069,3.55-4.835 c0.8-0.301,1.626-0.398,2.468-0.299c0.377-1.822,1.998-3.182,3.905-3.182c0.684,0,1.354,0.18,1.944,0.51 c0-0.386,0.035-0.772,0.106-1.159c0.477-2.562,2.621-4.573,5.215-4.891c1.679-0.205,3.32,0.266,4.616,1.328 c1.003,0.823,1.716,1.951,2.038,3.193c1.012-0.916,2.319-1.426,3.714-1.426c3.067,0,5.562,2.496,5.562,5.563 c0,0.083-0.002,0.166-0.007,0.248c2.254,0.673,3.848,2.776,3.848,5.164C48.321,78.424,45.904,80.84,42.932,80.84z" />
    <path fill="#fdfcef" d="M28.337,69.572c-1.808-0.119-3.365,1.13-3.476,2.789c-0.014,0.206-0.005,0.409,0.025,0.606 c-0.349-0.394-0.865-0.661-1.458-0.7c-1.085-0.071-2.022,0.645-2.158,1.62c-0.197-0.054-0.403-0.09-0.616-0.104 c-1.582-0.104-2.944,0.989-3.042,2.441" />
    <path fill="#472b29" d="M17.613,76.473c-0.006,0-0.012,0-0.017-0.001c-0.138-0.009-0.242-0.128-0.233-0.266 c0.107-1.587,1.588-2.789,3.308-2.674c0.137,0.009,0.273,0.026,0.409,0.053c0.274-0.968,1.256-1.645,2.366-1.567 c0.425,0.027,0.823,0.159,1.164,0.382c0-0.019,0.002-0.037,0.003-0.056c0.12-1.795,1.787-3.16,3.742-3.021 c0.138,0.009,0.242,0.128,0.233,0.266s-0.124,0.255-0.266,0.232c-1.651-0.105-3.108,1.037-3.21,2.557 c-0.012,0.184-0.004,0.37,0.023,0.553c0.017,0.109-0.041,0.217-0.141,0.264c-0.1,0.047-0.219,0.022-0.293-0.061 c-0.323-0.365-0.78-0.584-1.287-0.617c-0.951-0.034-1.775,0.556-1.894,1.404c-0.01,0.071-0.05,0.135-0.11,0.175 c-0.06,0.039-0.133,0.051-0.204,0.032c-0.187-0.051-0.377-0.083-0.567-0.097c-1.44-0.092-2.687,0.896-2.775,2.209 C17.853,76.372,17.743,76.473,17.613,76.473z" />
    <g>
      <path fill="#fdfcef" d="M44.912,71.24c-1.699-0.801-3.664-0.234-4.389,1.267c-0.09,0.186-0.157,0.379-0.201,0.574" />
      <path fill="#472b29" d="M40.322,73.331c-0.018,0-0.037-0.002-0.056-0.006c-0.134-0.031-0.219-0.165-0.188-0.3 c0.049-0.217,0.123-0.428,0.219-0.627c0.783-1.621,2.902-2.239,4.721-1.385c0.125,0.06,0.179,0.208,0.12,0.333 c-0.059,0.126-0.209,0.176-0.333,0.12c-1.574-0.744-3.394-0.227-4.058,1.149c-0.08,0.165-0.141,0.34-0.182,0.521 C40.539,73.253,40.436,73.331,40.322,73.331z" />
    </g>
  </g>
  <g>
    <path fill="#472b29" d="M53.241,63.592c-2.409,0-5.231-0.392-7.743-1.075c-0.133-0.036-0.212-0.174-0.176-0.307 s0.172-0.21,0.307-0.176c2.471,0.672,5.246,1.058,7.612,1.058c0.929,0,1.867-0.047,2.79-0.139c0.143-0.015,0.26,0.088,0.273,0.225 c0.014,0.137-0.086,0.26-0.224,0.273C55.142,63.544,54.187,63.592,53.241,63.592z" />
  </g>
  <g>
    <path fill="#472b29" d="M57.871,63.21c-0.12,0-0.226-0.087-0.246-0.21c-0.022-0.136,0.07-0.265,0.206-0.287 c0.188-0.03,0.377-0.064,0.563-0.1c0.171-0.032,0.342-0.066,0.513-0.102c0.133-0.021,0.267,0.059,0.295,0.195 c0.027,0.135-0.06,0.267-0.195,0.295c-0.172,0.035-0.346,0.069-0.521,0.103c-0.191,0.036-0.383,0.07-0.575,0.103 C57.898,63.209,57.884,63.21,57.871,63.21z" />
  </g>
  <g>
    <path fill="#472b29" d="M48.668,69.301c-0.003,0-0.006,0-0.009,0c-0.079-0.003-0.152-0.043-0.196-0.108l-4.605-6.676 c-0.079-0.114-0.05-0.27,0.063-0.348c0.113-0.079,0.27-0.051,0.348,0.063l4.416,6.4l4.122-5.112c0.096-0.118,0.294-0.118,0.39,0 l4.118,5.107l4.167-6.267c0.076-0.116,0.233-0.146,0.346-0.07c0.115,0.076,0.146,0.231,0.07,0.346l-4.355,6.551 c-0.044,0.066-0.117,0.108-0.196,0.111c-0.081,0.008-0.156-0.031-0.207-0.093L53,64.077l-4.137,5.131 C48.815,69.267,48.743,69.301,48.668,69.301z" />
  </g>
  <g>
    <path fill="#472b29" d="M50.532,71.938c-0.017,0-0.033-0.001-0.05-0.005c-0.135-0.027-0.223-0.159-0.196-0.294l0.344-1.717 c0.006-0.032,0.148-0.742,0.842-1.219c-0.39-0.333-0.909-0.84-1.123-1.838c-0.029-0.135,0.057-0.268,0.192-0.297 c0.138-0.026,0.268,0.058,0.297,0.192c0.198,0.925,0.698,1.344,1.063,1.65c0.062,0.052,0.12,0.101,0.172,0.147 c0.063,0.057,0.093,0.141,0.08,0.224s-0.067,0.154-0.144,0.189c-0.748,0.341-0.888,1.039-0.889,1.045l-0.344,1.72 C50.752,71.855,50.648,71.938,50.532,71.938z" />
  </g>
  <g>
    <path fill="#472b29" d="M55.437,71.938c-0.117,0-0.221-0.082-0.245-0.201l-0.344-1.717c-0.006-0.03-0.15-0.712-0.89-1.048 c-0.077-0.035-0.131-0.106-0.144-0.189s0.017-0.167,0.08-0.224c0.052-0.047,0.11-0.095,0.172-0.147 c0.365-0.306,0.865-0.726,1.063-1.65c0.029-0.135,0.16-0.218,0.297-0.192c0.135,0.029,0.221,0.162,0.192,0.297 c-0.214,0.998-0.733,1.504-1.123,1.838c0.694,0.477,0.836,1.188,0.843,1.222l0.343,1.714c0.027,0.136-0.061,0.268-0.196,0.294 C55.47,71.936,55.454,71.938,55.437,71.938z" />
  </g>
</svg>