<svg xmlns="http://www.w3.org/2000/svg" viewBox="0 0 100 100">
    <path fill="#c7ede6" d="M87.215,56.71C88.35,54.555,89,52.105,89,49.5c0-6.621-4.159-12.257-10.001-14.478 C78.999,35.015,79,35.008,79,35c0-11.598-9.402-21-21-21c-9.784,0-17.981,6.701-20.313,15.757C36.211,29.272,34.638,29,33,29 c-7.692,0-14.023,5.793-14.89,13.252C12.906,43.353,9,47.969,9,53.5C9,59.851,14.149,65,20.5,65c0.177,0,0.352-0.012,0.526-0.022 C21.022,65.153,21,65.324,21,65.5C21,76.822,30.178,86,41.5,86c6.437,0,12.175-2.972,15.934-7.614C59.612,80.611,62.64,82,66,82 c4.65,0,8.674-2.65,10.666-6.518C77.718,75.817,78.837,76,80,76c6.075,0,11-4.925,11-11C91,61.689,89.53,58.727,87.215,56.71z" />
    <path fill="#fdfcef" d="M64.5,37.5V38h-3v-0.5c0,0-4.242,0-5.5,0c-2.485,0-4.5-2.015-4.5-4.5 c0-2.333,1.782-4.229,4.055-4.455C55.533,28.364,55.5,28.187,55.5,28c0-2.485,2.015-4.5,4.5-4.5c1.438,0,2.703,0.686,3.527,1.736 C63.667,22.6,65.829,20.5,68.5,20.5c2.761,0,5,2.239,5,5c0,0.446-0.077,0.87-0.187,1.282c0.642-0.777,1.6-1.282,2.687-1.282 c1.781,0,3.234,1.335,3.455,3.055C79.636,28.533,79.813,28.5,80,28.5c2.485,0,4.5,2.015,4.5,4.5s-2.015,4.5-4.5,4.5s-9.5,0-9.5,0 H64.5z" />
    <path fill="#472b29" d="M68.5,20c3.033,0,5.5,2.467,5.5,5.5c0,0.016,0,0.031,0,0.047C74.602,25.192,75.29,25,76,25 c1.831,0,3.411,1.261,3.858,3.005C79.905,28.002,79.952,28,80,28c2.757,0,5,2.243,5,5s-2.243,5-5,5H64.5 c-0.276,0-0.5-0.224-0.5-0.5s0.224-0.5,0.5-0.5H80c2.206,0,4-1.794,4-4s-1.794-4-4-4c-0.117,0-0.23,0.017-0.343,0.032 l-0.141,0.019c-0.021,0.003-0.041,0.004-0.062,0.004c-0.246,0-0.462-0.185-0.495-0.437C78.768,27.125,77.496,26,76,26 c-0.885,0-1.723,0.401-2.301,1.1c-0.098,0.118-0.241,0.182-0.386,0.182c-0.078,0-0.156-0.018-0.228-0.056 c-0.209-0.107-0.314-0.346-0.254-0.573C72.946,26.218,73,25.852,73,25.5c0-2.481-2.019-4.5-4.5-4.5 c-2.381,0-4.347,1.872-4.474,4.263c-0.011,0.208-0.15,0.387-0.349,0.45c-0.05,0.016-0.101,0.024-0.152,0.024 c-0.15,0-0.296-0.069-0.392-0.192C62.362,24.563,61.221,24,60,24c-2.206,0-4,1.794-4,4c0,0.117,0.017,0.23,0.032,0.343 l0.019,0.141c0.016,0.134-0.022,0.268-0.106,0.373c-0.084,0.105-0.207,0.172-0.34,0.185C53.549,29.247,52,30.949,52,33 c0,2.206,1.794,4,4,4h5.5c0.276,0,0.5,0.224,0.5,0.5S61.776,38,61.5,38H56c-2.757,0-5-2.243-5-5c0-2.397,1.689-4.413,4.003-4.877 C55.001,28.082,55,28.041,55,28c0-2.757,2.243-5,5-5c1.176,0,2.293,0.416,3.183,1.164C63.781,21.76,65.945,20,68.5,20L68.5,20z" />
    <path fill="#472b29" d="M70 27c1.403 0 2.609.999 2.913 2.341C73.28 29.119 73.699 29 74.125 29c1.202 0 2.198.897 2.353 2.068C76.681 31.022 76.874 31 77.063 31c1.529 0 2.811 1.2 2.918 2.732C79.99 33.87 79.886 33.99 79.749 34c-.006 0-.012 0-.018 0-.13 0-.24-.101-.249-.232-.089-1.271-1.151-2.268-2.419-2.268-.229 0-.47.042-.738.127-.022.007-.045.01-.067.01-.055 0-.11-.02-.156-.054C76.038 31.537 76 31.455 76 31.375c0-1.034-.841-1.875-1.875-1.875-.447 0-.885.168-1.231.473-.047.041-.106.063-.165.063-.032 0-.063-.006-.093-.019-.088-.035-.148-.117-.155-.212C72.377 28.512 71.288 27.5 70 27.5c-.208 0-.425.034-.682.107-.023.007-.047.01-.07.01-.109 0-.207-.073-.239-.182-.038-.133.039-.271.172-.309C69.483 27.04 69.744 27 70 27L70 27zM56.117 28.5c1.326 0 2.508.897 2.874 2.182.038.133-.039.271-.172.309C58.795 30.997 58.772 31 58.75 31c-.109 0-.209-.072-.24-.182C58.205 29.748 57.221 29 56.117 29c-.117 0-.23.014-.342.029-.012.002-.023.003-.035.003-.121 0-.229-.092-.246-.217-.019-.137.077-.263.214-.281C55.842 28.516 55.978 28.5 56.117 28.5L56.117 28.5z" />
    <path fill="#fff" d="M20.5 43h-10c-.276 0-.5-.224-.5-.5s.224-.5.5-.5h10c.276 0 .5.224.5.5S20.777 43 20.5 43zM23.5 43h-1c-.276 0-.5-.224-.5-.5s.224-.5.5-.5h1c.276 0 .5.224.5.5S23.777 43 23.5 43zM28.491 45H19.5c-.276 0-.5-.224-.5-.5s.224-.5.5-.5h8.991c.276 0 .5.224.5.5S28.767 45 28.491 45zM17.5 45h-1c-.276 0-.5-.224-.5-.5s.224-.5.5-.5h1c.276 0 .5.224.5.5S17.777 45 17.5 45zM14.5 45h-2c-.276 0-.5-.224-.5-.5s.224-.5.5-.5h2c.276 0 .5.224.5.5S14.777 45 14.5 45zM20.5 47h-2c-.276 0-.5-.224-.5-.5s.224-.5.5-.5h2c.276 0 .5.224.5.5S20.776 47 20.5 47zM23.5 38c-.177 0-.823 0-1 0-.276 0-.5.224-.5.5 0 .276.224.5.5.5.177 0 .823 0 1 0 .276 0 .5-.224.5-.5C24 38.224 23.776 38 23.5 38zM23.5 40c-.177 0-4.823 0-5 0-.276 0-.5.224-.5.5 0 .276.224.5.5.5.177 0 4.823 0 5 0 .276 0 .5-.224.5-.5C24 40.224 23.776 40 23.5 40zM28.5 42c-.177 0-2.823 0-3 0-.276 0-.5.224-.5.5 0 .276.224.5.5.5.177 0 2.823 0 3 0 .276 0 .5-.224.5-.5C29 42.224 28.776 42 28.5 42z" />
    <g>
        <path fill="#fff" d="M84.5 47h-10c-.276 0-.5-.224-.5-.5s.224-.5.5-.5h10c.276 0 .5.224.5.5S84.776 47 84.5 47zM88.5 47h-2c-.276 0-.5-.224-.5-.5s.224-.5.5-.5h2c.276 0 .5.224.5.5S88.776 47 88.5 47zM93.5 49h-10c-.276 0-.5-.224-.5-.5s.224-.5.5-.5h10c.276 0 .5.224.5.5S93.777 49 93.5 49zM81.5 49h-1c-.276 0-.5-.224-.5-.5s.224-.5.5-.5h1c.276 0 .5.224.5.5S81.776 49 81.5 49zM78.47 49H76.5c-.276 0-.5-.224-.5-.5s.224-.5.5-.5h1.97c.276 0 .5.224.5.5S78.746 49 78.47 49zM87.5 45h-5c-.276 0-.5-.224-.5-.5s.224-.5.5-.5h5c.276 0 .5.224.5.5S87.777 45 87.5 45zM84.5 51h-2c-.276 0-.5-.224-.5-.5s.224-.5.5-.5h2c.276 0 .5.224.5.5S84.776 51 84.5 51z" />
    </g>
    <g>
        <path fill="#fdfcef" d="M28.5,65.5c0,0,1.567,0,3.5,0s3.5-1.567,3.5-3.5c0-1.781-1.335-3.234-3.055-3.455 C32.473,58.366,32.5,58.187,32.5,58c0-1.933-1.567-3.5-3.5-3.5c-1.032,0-1.95,0.455-2.59,1.165 c-0.384-1.808-1.987-3.165-3.91-3.165c-2.209,0-4,1.791-4,4c0,0.191,0.03,0.374,0.056,0.558C18.128,56.714,17.592,56.5,17,56.5 c-1.228,0-2.245,0.887-2.455,2.055C14.366,58.527,14.187,58.5,14,58.5c-1.933,0-3.5,1.567-3.5,3.5s1.567,3.5,3.5,3.5s7.5,0,7.5,0 V66h7V65.5z" />
        <path fill="#472b29" d="M30.25 61C30.112 61 30 60.888 30 60.75c0-1.223.995-2.218 2.218-2.218.034.009.737-.001 1.244.136.133.036.212.173.176.306-.036.134-.173.213-.306.176-.444-.12-1.1-.12-1.113-.118-.948 0-1.719.771-1.719 1.718C30.5 60.888 30.388 61 30.25 61zM23.5 65A.5.5 0 1 0 23.5 66 .5.5 0 1 0 23.5 65z" />
        <path fill="#472b29" d="M32,66h-3.5c-0.276,0-0.5-0.224-0.5-0.5s0.224-0.5,0.5-0.5H32c1.654,0,3-1.346,3-3 c0-1.496-1.125-2.768-2.618-2.959c-0.134-0.018-0.255-0.088-0.336-0.196s-0.115-0.244-0.094-0.377C31.975,58.314,32,58.16,32,58 c0-1.654-1.346-3-3-3c-0.85,0-1.638,0.355-2.219,1c-0.125,0.139-0.321,0.198-0.5,0.148c-0.182-0.049-0.321-0.195-0.36-0.379 C25.58,54.165,24.141,53,22.5,53c-1.93,0-3.5,1.57-3.5,3.5c0,0.143,0.021,0.28,0.041,0.418c0.029,0.203-0.063,0.438-0.242,0.54 c-0.179,0.102-0.396,0.118-0.556-0.01C17.878,57.155,17.449,57,17,57c-0.966,0-1.792,0.691-1.963,1.644 c-0.048,0.267-0.296,0.446-0.569,0.405C14.314,59.025,14.16,59,14,59c-1.654,0-3,1.346-3,3s1.346,3,3,3h7.5 c0.276,0,0.5,0.224,0.5,0.5S21.776,66,21.5,66H14c-2.206,0-4-1.794-4-4s1.794-4,4-4c0.059,0,0.116,0.002,0.174,0.006 C14.588,56.82,15.711,56,17,56c0.349,0,0.689,0.061,1.011,0.18C18.176,53.847,20.126,52,22.5,52c1.831,0,3.466,1.127,4.153,2.774 C27.333,54.276,28.155,54,29,54c2.206,0,4,1.794,4,4c0,0.048-0.001,0.095-0.004,0.142C34.739,58.59,36,60.169,36,62 C36,64.206,34.206,66,32,66z" />
        <path fill="#472b29" d="M26.5,65c-0.159,0-0.841,0-1,0c-0.276,0-0.5,0.224-0.5,0.5c0,0.276,0.224,0.5,0.5,0.5 c0.159,0,0.841,0,1,0c0.276,0,0.5-0.224,0.5-0.5C27,65.224,26.776,65,26.5,65z" />
    </g>
    <g>
        <path fill="#be7841" d="M41.206,45.895c-0.158-0.347-3.837-8.559-1.042-14.143c1.157-2.313,3.257-3.827,6.24-4.502 c1.719-1.185,3.78-1.836,5.817-1.836c1.709,0,3.368,0.442,4.932,1.314c3.883,2.165,6.27,6.444,6.762,8.063 c1.839,6.037-1.011,10.944-1.133,11.15l-0.94,1.587l0.011-1.845c0-0.05,0.015-4.724-1.095-7.715 c-1.42,0.793-3.144,1.21-5.025,1.21c-3.247,0-6.838-1.186-10.403-3.431c-3.167,2.488-3.168,9.859-3.168,9.936l0.012,2.332 L41.206,45.895z" />
        <path fill="#472b29" d="M52.22,25.914c1.512,0,3.109,0.37,4.69,1.251c3.821,2.131,6.087,6.327,6.527,7.772 c1.795,5.895-1.085,10.75-1.085,10.75s0.035-5.382-1.354-8.449c-1.433,0.946-3.23,1.44-5.266,1.44 c-3.077,0-6.698-1.129-10.42-3.534c-3.694,2.458-3.65,10.543-3.65,10.543s-6.996-15.36,4.949-17.972 C48.128,26.647,50.091,25.914,52.22,25.914 M52.22,24.914c-2.106,0-4.235,0.663-6.02,1.87c-3.087,0.72-5.268,2.315-6.484,4.744 c-2.901,5.796,0.872,14.219,1.034,14.575l1.93,4.238l-0.02-4.657c-0.009-1.965,0.479-7.202,2.717-9.315 c3.542,2.168,7.109,3.311,10.354,3.311c1.74,0,3.355-0.343,4.739-0.999c0.894,2.891,0.881,6.956,0.881,7.001L61.33,49.37 l1.882-3.172c0.127-0.214,3.083-5.306,1.181-11.552c-0.533-1.75-2.944-6.095-6.996-8.354 C55.758,25.378,54.016,24.914,52.22,24.914L52.22,24.914z" />
        <path fill="#fabf82" d="M66.884,68.203c-0.671-0.474-9.276-3.491-9.276-3.491c-0.547-0.147-0.851-0.595-0.949-1.095 c-0.276-1.416-0.243-4.822-0.236-5.43c0.001-0.048-0.043-0.084-0.097-0.084h-0.325h-7.979h-0.325 c-0.054,0-0.097,0.037-0.097,0.084c0.006,0.602,0.034,3.939-0.236,5.43c-0.091,0.502-0.402,0.948-0.949,1.095l-7.034,2.447 c-0.704,0.195-1.381,0.474-1.975,0.863c-3.105,2.031-3.194,5.355-3.323,5.974c-0.011,0.053,0.035,0.101,0.095,0.101h17.833 h17.833c0.061,0,0.106-0.048,0.095-0.101C69.816,73.394,69.77,70.244,66.884,68.203z" />
        <path fill="#472b29" d="M56.327,58.102c0.054,0,0.097,0.036,0.097,0.084c-0.007,0.608-0.04,4.014,0.236,5.43 c0.098,0.501,0.402,0.948,0.949,1.095c0,0,8.605,3.016,9.276,3.491c2.886,2.042,2.932,5.192,3.057,5.792 c0.011,0.053-0.035,0.101-0.095,0.101H52.013H34.18c-0.061,0-0.106-0.048-0.095-0.101c0.129-0.619,0.218-3.943,3.323-5.974 c0.594-0.389,1.271-0.667,1.975-0.863l7.034-2.447c0.547-0.147,0.858-0.593,0.949-1.095c0.27-1.491,0.242-4.828,0.236-5.43 c-0.001-0.048,0.043-0.084,0.096-0.084h0.325h7.979L56.327,58.102 M56.327,57.102h-0.325h-7.979h-0.325 c-0.294,0-0.58,0.119-0.785,0.326c-0.204,0.207-0.315,0.48-0.312,0.77c0.02,1.837-0.028,4.18-0.22,5.24 c-0.047,0.26-0.181,0.296-0.225,0.308l-0.035,0.009l-0.034,0.012l-7.005,2.437c-0.842,0.236-1.59,0.566-2.223,0.98 c-3.139,2.053-3.577,5.304-3.721,6.372c-0.014,0.102-0.023,0.182-0.034,0.235c-0.066,0.319,0.014,0.647,0.22,0.9 c0.209,0.257,0.52,0.404,0.854,0.404h17.833h17.833c0.334,0,0.645-0.147,0.854-0.404c0.206-0.253,0.286-0.581,0.22-0.9 c-0.011-0.055-0.02-0.137-0.034-0.241c-0.144-1.125-0.525-4.112-3.425-6.164c-0.683-0.483-6.259-2.474-9.522-3.618l-0.035-0.012 l-0.036-0.01c-0.043-0.012-0.174-0.047-0.227-0.321c-0.195-1-0.24-3.356-0.217-5.227c0.003-0.29-0.107-0.564-0.312-0.77 C56.907,57.221,56.621,57.102,56.327,57.102L56.327,57.102z" />
        <path fill="#fddbbc" d="M65.65,47.519c0.153-0.525,0.282-1.041,0.464-1.553c0.237-0.67,0.069-1.1-0.673-1.515 c-0.034-0.019-0.062-0.041-0.091-0.063c-0.119-0.019-0.233-0.034-0.329-0.046c-0.668-0.079-1.855-0.114-2.2-0.81 c-0.391-0.789-0.197-1.627-0.096-2.46c0.111-0.917-0.233-1.8-0.236-2.714c-0.062-0.09-0.106-0.196-0.119-0.323 c-0.137-1.349-0.53-2.639-1.055-3.886c-1.847-2.449-5.297-4.101-9.244-4.101c-5.887,0-10.677,3.672-10.677,8.185 c0,0.214,0.014,0.425,0.036,0.634c-0.058,0.816-0.135,1.543-0.098,2.436c0.033,0.79-0.082,1.377-0.006,2.42 c0.043,0.588-0.225,0.209-1.164,0.255c-0.12,0-0.236,0.001-0.35,0.009c-1.03,0.069-1.863,0.732-2.041,1.553 c0.126,0.078,0.227,0.202,0.273,0.386c0.375,1.524,0.323,3.287,1.082,4.703c0.424,0.791,1.086,0.901,1.766,1.411 c0.377,0.283,0.449,0.602,0.552,1.025c0.382,1.565,1.441,2.896,2.603,4.032c0.588,0.575,1.219,1.092,1.856,1.615 c0.529,0.434,1.083,0.936,1.738,1.194c0.219,0.086,0.355,0.241,0.421,0.415c0.434,0.233,1.048,0.561,1.048,0.555 c2.097,0.843,4.108,0.915,6.23-0.041c0,0.008,0,0.016,0,0.024c0.011-0.007,1.033-0.501,1.451-0.732 c0.033-0.045,0.071-0.09,0.121-0.132c0.643-0.544,1.355-0.998,2.017-1.518c0.544-0.428,0.99-0.901,1.411-1.415 c-0.097-0.223,0.118-0.031,0.318-0.264c0.941-1.093,1.825-2.815,1.978-4.217c0.008-0.072,0.06-0.124,0.098-0.176 c-0.122-0.389,0.18-0.601,0.736-0.616c0.502-0.013,0.801-0.582,1.186-0.856C64.943,49.831,65.332,48.607,65.65,47.519z" />
        <path fill="#8e7469" d="M63.104,46.599c0.012-0.178,0.015-0.357-0.005-0.534l1.332,0.258l-0.483,2.418l-0.537-0.098 l0.381-1.911L63.104,46.599z" opacity=".8" />
        <path fill="#472b29" d="M64.903,44.011c-0.458-0.116-0.944-0.127-1.459-0.191c0-0.055-0.131,0.059-0.131,0.004 c-0.325-0.032-0.497-0.416-0.502-0.817c-0.009-0.809-0.11-1.696-0.038-2.544c0.021-0.765-0.116-1.254-0.263-1.796 c0.023-0.222,0.037-0.446,0.037-0.673c0-4.639-4.79-8.413-10.677-8.413s-10.677,3.774-10.677,8.413 c0,0.22,0.014,0.437,0.036,0.652c-0.058,0.839-0.135,1.586-0.098,2.503c0.033,0.812-0.082,1.415-0.006,2.487 c0.043,0.604-0.225,0.215-1.164,0.262c-0.12,0-0.236,0.001-0.35,0.009c-1.277,0.088-2.253,1.114-2.05,2.224 c0.235,1.286,0.516,2.565,0.834,3.835c0.315,1.256,0.936,2.285,2.442,2.431c0.194,1.634,0.54,2.464,1.57,3.752 c1.399,1.75,3.058,3.242,5.063,4.33c0.208,0.113,1.44,0.795,1.44,0.786c2.097,0.867,4.108,0.94,6.23-0.042 c0,0.008,0,0.016,0,0.025c0.013-0.008,1.336-0.666,1.586-0.834c1.006-0.676,2.032-1.352,2.917-2.16 c1.755-1.602,3.411-3.3,3.584-5.862c1.488-0.134,2.105-1.148,2.423-2.375c0.311-1.202,0.537-2.425,0.788-3.641 C66.678,45.21,66.112,44.316,64.903,44.011z M40.833,51.515c-0.746,0.019-1.24-0.275-1.501-1.109 c-0.358-1.143-0.892-3.528-0.898-3.549c-0.564-1.739,0.501-2.511,2.399-2.146v1.01c-0.009,0-0.019,0.839,0.001,0.843 L40.833,51.515L40.833,51.515z M62.402,52.708c-0.004,0.451-0.079,0.96-0.305,1.343c-2.081,3.523-5.01,6.085-9.207,7.102 c-1.456,0.353-2.82-0.154-4.087-0.761c-2.653-1.272-4.776-3.139-6.398-5.516c-0.531-0.779-0.816-1.615-0.775-2.572 c0.054-1.264,0.013-2.532,0.013-3.799c0-0.156,0.012-0.312-0.002-0.466c-0.312-3.477,0.411-9.918,0.411-10.045 c0-4.187,4.404-7.593,9.818-7.593s9.995,3.406,9.995,7.593c0,0.086,0.034,0.187,0.031,0.272c0.371,0.355,0.097,3.739,0.482,5.446 c0.043,0.193,0.036,0.398,0.036,0.597C62.417,47.109,62.429,49.909,62.402,52.708z M65.738,46.086 c-0.276,1.458-0.612,2.909-1.021,4.338c-0.231,0.807-0.666,1.05-1.492,1.128v-4.977c0.002-0.001,0.004-0.001,0.005-0.001 c-0.001-0.016-0.004-0.03-0.004-0.047v-1.051c-0.006-0.003-0.012-0.006-0.018-0.009v-0.839c0.444,0,0.857-0.027,1.266,0.006 C65.3,44.701,65.886,45.301,65.738,46.086z" />
        <path fill="#8e7469" d="M41.026,47.033c-0.013-0.187-0.015-0.375,0.005-0.561l-1.399,0.271l0.507,2.542l0.565-0.103 l-0.401-2.009L41.026,47.033z" opacity=".8" />
        <path fill="#472b29" d="M51.963 51.494c.707 0 1.393-.309 1.835-.826.044-.052.038-.13-.013-.175l0 0c-.052-.044-.13-.039-.175.012-.36.411-.96.647-1.646.647-.687 0-1.287-.236-1.647-.647-.025-.028-.059-.042-.094-.042-.029 0-.058.01-.081.03-.052.045-.058.123-.013.175C50.57 51.185 51.256 51.494 51.963 51.494zM49.706 41.935l.449-.862c-1.898-.445-4.083-.374-5.887.186l.566.84C46.316 41.609 48.139 41.547 49.706 41.935zM59.21 41.935l.449-.862c-1.898-.445-4.083-.374-5.887.186l.566.84C55.82 41.609 57.643 41.547 59.21 41.935zM46.974 43.151c-.456 0-.856.302-1.087.757.058-.018.117-.03.18-.03.374 0 .677.338.677.756s-.303.756-.677.756c-.122 0-.236-.039-.335-.103.16.685.655 1.184 1.242 1.184.716 0 1.297-.743 1.297-1.66S47.691 43.151 46.974 43.151zM56.897 43.151c-.389 0-.737.22-.975.568.074-.031.154-.051.238-.051.374 0 .677.338.677.756 0 .417-.303.756-.677.756-.232 0-.436-.131-.558-.329.017.898.59 1.62 1.295 1.62.716 0 1.297-.743 1.297-1.66C58.194 43.894 57.614 43.151 56.897 43.151zM57.447 53.417c.053-.043.061-.122.018-.174l0 0c-.043-.053-.121-.062-.175-.019-1.169.932-3.111 1.467-5.327 1.467s-4.158-.535-5.328-1.467c-.023-.018-.05-.027-.078-.027-.036 0-.073.016-.097.046-.043.053-.035.131.018.175 1.32 1.079 3.37 1.723 5.484 1.723C54.077 55.14 56.127 54.496 57.447 53.417z" />
        <path fill="#68c8d0" d="M67.004,68.108c-0.673-0.482-1.449-0.836-2.271-1.067l-0.865-0.233 c0.006-0.002,0.012-0.003,0.017-0.005l-4.508-1.483c-2.287,0.623-4.741,0.965-7.299,0.965s-5.012-0.343-7.299-0.965l-4.508,1.483 c0.006,0.002,0.012,0.003,0.018,0.005l-0.887,0.239c-0.707,0.198-1.386,0.481-1.982,0.876c-3.117,2.064-3.206,5.441-3.335,6.069 c-0.011,0.054,0.035,0.102,0.095,0.102h17.898h17.898c0.061,0,0.106-0.049,0.095-0.102 C69.946,73.383,69.901,70.183,67.004,68.108z" />
        <path fill="#472b29" d="M51.992 66.536c-2.409 0-5.231-.392-7.743-1.075-.133-.036-.212-.174-.176-.307.036-.133.172-.21.307-.176 2.471.672 5.246 1.058 7.612 1.058.929 0 1.867-.047 2.79-.139.143-.015.26.088.273.225.014.137-.086.26-.224.273C53.893 66.488 52.938 66.536 51.992 66.536zM56.622 66.154c-.12 0-.226-.087-.246-.21-.022-.136.07-.265.206-.287.188-.03.377-.064.563-.1.171-.032.342-.066.513-.102.133-.021.267.059.295.195.027.135-.06.267-.195.295-.172.035-.346.069-.521.103-.191.036-.383.07-.575.103C56.649 66.153 56.635 66.154 56.622 66.154zM34.18 74.246c-.028 0-.057-.008-.082-.024-.069-.046-.089-.139-.043-.208l4.825-7.383c.045-.069.139-.09.208-.044.069.046.089.139.043.208l-4.825 7.383C34.277 74.221 34.229 74.246 34.18 74.246zM35.666 74.494c-.028 0-.057-.008-.082-.024-.069-.046-.089-.139-.043-.208l5.388-8.244c.045-.07.139-.09.208-.044.069.046.089.139.043.208l-5.388 8.244C35.763 74.469 35.715 74.494 35.666 74.494zM37.504 74.246c-.028 0-.057-.008-.082-.024-.069-.046-.089-.139-.043-.208l5.388-8.244c.045-.069.139-.089.208-.044.069.046.089.139.043.208l-5.388 8.244C37.601 74.221 37.553 74.246 37.504 74.246zM39.006 74.494c-.028 0-.057-.008-.082-.024-.069-.046-.089-.139-.043-.208l5.388-8.244c.046-.07.139-.09.208-.044.069.046.089.139.043.208l-5.388 8.244C39.102 74.469 39.054 74.494 39.006 74.494zM40.561 74.676c-.028 0-.057-.008-.082-.024-.069-.046-.089-.139-.043-.208l3.828-5.857c.045-.069.139-.089.208-.044.069.046.089.139.043.208l-3.828 5.857C40.657 74.652 40.61 74.676 40.561 74.676zM42.172 74.86c-.028 0-.057-.008-.082-.024-.069-.046-.089-.139-.043-.208l1.914-2.929c.045-.069.138-.089.208-.044.069.046.089.139.043.208l-1.914 2.929C42.269 74.836 42.221 74.86 42.172 74.86z" />
        <g>
            <path fill="#512c2b" d="M53.136,58.125c0.062,0,0.114-0.072,0.114-0.157c0-0.085-0.052-0.157-0.114-0.157h-2.571 c-0.062,0-0.114,0.072-0.114,0.157c0,0.085,0.052,0.157,0.114,0.157H53.136z" />
        </g>
        <g>
            <path fill="#be7841" d="M56.91,27.228c-3.808-2.124-7.704-1.277-10.301,0.551C34.665,30.39,41.661,45.75,41.661,45.75 s-0.044-8.085,3.65-10.543c6.186,3.996,12.088,4.47,15.687,2.094c1.389,3.067,1.354,8.449,1.354,8.449s2.88-4.855,1.085-10.75 C62.997,33.555,60.731,29.358,56.91,27.228z" />
        </g>
        <g>
            <path fill="#472b29" d="M62.795,45.709l-0.5-0.004c0-0.052,0.018-5.063-1.241-8.082c-3.925,2.354-9.95,1.536-15.848-2.16 c-3.47,2.459-3.47,10.164-3.47,10.243l-0.5,0.002c-0.002-0.335-0.002-8.249,3.828-10.753c0.081-0.055,0.188-0.057,0.271-0.002 c5.9,3.744,11.915,4.547,15.696,2.095c0.062-0.04,0.137-0.052,0.205-0.03c0.07,0.021,0.127,0.069,0.158,0.136 C62.814,40.235,62.796,45.486,62.795,45.709z" />
        </g>
    </g>
    <g>
        <path fill="#fdfcee" d="M78.284,56.724L78.284,56.724c-2.23-1.479-4.703-1.656-5.495-0.394L57.328,80.956 c-0.716,1.14-1.397,8.859-1.733,10.676c-0.034,0.183,0.051,0.372,0.213,0.48l0.278,0.184c0.214,0.142,0.483,0.143,0.68,0.001 c1.65-1.192,7.967-4.842,8.671-5.963l15.461-24.626C81.69,60.447,80.514,58.204,78.284,56.724z" />
        <path fill="#f48e8f" d="M78.509,65.512l2.733-4.353c0.793-1.263-0.383-3.506-2.613-4.985l0,0 c-2.23-1.479-4.703-1.656-5.495-0.394l-2.601,4.142C73.199,61.772,75.832,63.68,78.509,65.512z" />
        <path fill="#605e60" d="M56.084,88.01c-0.193,1.582-0.356,2.956-0.477,3.613c-0.036,0.198,0.055,0.401,0.229,0.516 l0.299,0.198c0.232,0.154,0.524,0.151,0.738-0.003c0.573-0.413,1.662-1.098,2.901-1.877L56.084,88.01z" />
        <path fill="#ef9922" d="M65.21 86.695L57.102 81.316 69.608 61.396 77.716 66.775z" />
        <path fill="#beace5" d="M77.716 66.775L69.608 61.396 71.783 57.932 79.891 63.311z" />
        <path fill="#472b29" d="M55.587,92.027c-0.244-0.244-0.358-0.591-0.295-0.934c0.099-0.541,0.235-1.66,0.393-2.955 c0.484-3.98,0.896-7.092,1.419-7.926l15.462-24.626c0.329-0.524,0.875-0.881,1.578-1.033c1.346-0.29,3.117,0.177,4.735,1.251l0,0 c2.539,1.682,3.762,4.224,2.784,5.783L66.202,86.213c-0.508,0.809-2.868,2.332-6.146,4.393c-1.159,0.73-2.16,1.359-2.677,1.732 c-0.395,0.287-0.923,0.291-1.345,0.011l-0.278-0.185C55.695,92.125,55.638,92.078,55.587,92.027z M56.442,91.305l0.007,0.007 L56.442,91.305z M78.234,56.778c-1.321-0.875-2.83-1.301-3.843-1.082c-0.393,0.085-0.674,0.257-0.834,0.512L58.094,80.834 c-0.426,0.679-0.941,4.914-1.248,7.444c-0.153,1.258-0.286,2.351-0.39,2.948l0.224,0.15c0.562-0.381,1.578-1.02,2.754-1.76 c2.009-1.264,5.372-3.379,5.778-4.026l15.461-24.625C81.212,60.109,80.34,58.18,78.234,56.778L78.234,56.778z" />
        <path fill="#472b29" d="M69.522 61.402c-.104-.104-.124-.269-.04-.396.096-.145.292-.184.436-.088l8.108 5.379c.146.095.184.291.088.436-.096.145-.292.184-.436.088l-8.108-5.379C69.552 61.43 69.536 61.417 69.522 61.402zM71.922 58.087c-.104-.104-.124-.269-.04-.396.096-.145.292-.184.436-.088l5.854 3.888c.146.094.184.291.088.436-.096.145-.292.184-.436.088l-5.854-3.888C71.952 58.116 71.936 58.102 71.922 58.087zM71.107 59.386c-.104-.104-.124-.269-.04-.396.096-.145.292-.184.436-.088l7.787 5.166c.146.094.184.291.088.436-.096.145-.292.184-.436.088l-7.787-5.166C71.137 59.414 71.121 59.401 71.107 59.386zM56.879 81.538c-.104-.104-.124-.269-.04-.396.096-.145.292-.184.436-.088l8.107 5.379c.146.092.184.291.088.436-.096.145-.292.184-.436.088l-8.107-5.379C56.91 81.566 56.894 81.553 56.879 81.538zM56.23 88.162c-.104-.104-.124-.269-.04-.396.096-.145.292-.184.436-.088l3.153 2.092c.147.093.184.291.088.436-.096.145-.292.184-.436.088l-3.153-2.092C56.26 88.19 56.244 88.176 56.23 88.162z" />
        <g>
            <path fill="#472b29" d="M62.739,83.892c-0.102-0.102-0.124-0.263-0.044-0.389l10.331-16.455 c0.093-0.147,0.287-0.192,0.434-0.099c0.152,0.088,0.192,0.286,0.1,0.434L63.228,83.837c-0.093,0.147-0.287,0.192-0.434,0.099 C62.773,83.924,62.755,83.908,62.739,83.892z" />
        </g>
        <g>
            <path fill="#472b29" d="M60.487,82.397c-0.102-0.102-0.124-0.263-0.044-0.389l11.963-19.053 c0.093-0.147,0.287-0.192,0.434-0.099c0.152,0.087,0.192,0.287,0.1,0.434L60.976,82.343c-0.093,0.147-0.287,0.192-0.434,0.099 C60.521,82.429,60.503,82.414,60.487,82.397z" />
        </g>
        <g>
            <path fill="#472b29" d="M73.614,66.57c-0.102-0.102-0.124-0.263-0.044-0.389l1.087-1.732 c0.093-0.147,0.287-0.192,0.434-0.099c0.15,0.087,0.192,0.287,0.1,0.434l-1.087,1.732c-0.093,0.147-0.287,0.192-0.434,0.099 C73.649,66.602,73.631,66.587,73.614,66.57z" />
        </g>
        <g>
            <path fill="#472b29" d="M78.679,62.569c-0.104-0.104-0.124-0.269-0.04-0.396c0.096-0.145,0.292-0.184,0.436-0.088 l1.03,0.684c0.145,0.094,0.184,0.291,0.088,0.436c-0.096,0.145-0.292,0.184-0.436,0.088l-1.03-0.684 C78.71,62.598,78.693,62.584,78.679,62.569z" />
        </g>
    </g>
</svg>