<svg xmlns="http://www.w3.org/2000/svg" viewBox="0 0 100 100">
    <path fill="#c8ede6" d="M87.234,55.551c0.3-0.616,0.566-1.264,0.796-1.943c2.633-7.77-1.349-17.078-9.733-19.325 C77.391,22.9,69.391,15.09,60.356,13.758c-10.341-1.525-19.814,5.044-22.966,15.485c-3.799-1.346-7.501-1.182-10.99,0.857 c-1.583,0.732-3.031,1.812-4.33,3.233c-1.907,2.086-3.147,4.719-3.652,7.495c-0.748,0.118-1.483,0.236-2.176,0.484 c-4.04,1.449-6.589,4.431-7.288,8.923c-0.435,2.797,0.443,5.587,0.933,6.714c1.935,4.455,6.422,6.98,10.981,6.312 c0.227-0.033,0.557,0.069,0.752,0.233c0.241,7.12,3.698,13.417,8.884,17.014c8.321,5.772,19.027,3.994,25.781-3.921 c2.894,2.96,6.338,4.398,10.384,3.876c4.023-0.519,7.147-2.739,9.426-6.349c1.053,0.283,2.051,0.691,3.083,0.804 c4.042,0.442,7.297-1.184,9.732-4.8c0.083-0.124,0.203-0.219,0.306-0.328c0.348-0.798,0.696-1.596,1.044-2.394 c0.155-1.211,0.429-2.423,0.443-3.632C90.742,60.508,89.411,57.54,87.234,55.551z" />
    <path fill="#fdfcef" d="M26.587,70.381c0,0,11.691,0,11.762,0c2.7,0,4.888-2.189,4.888-4.889 c0-2.355-1.666-4.321-3.884-4.784c0.026-0.206,0.043-0.415,0.043-0.628c0-2.796-2.267-5.063-5.063-5.063 c-1.651,0-3.113,0.794-4.037,2.017c-0.236-3.113-3.017-5.514-6.27-5.116c-2.379,0.291-4.346,2.13-4.784,4.486 c-0.14,0.756-0.126,1.489,0.014,2.177c-0.638-0.687-1.546-1.119-2.557-1.119c-1.85,0-3.361,1.441-3.48,3.261 c-0.84-0.186-1.754-0.174-2.717,0.188c-1.84,0.691-3.15,2.423-3.227,4.387c-0.109,2.789,2.12,5.085,4.885,5.085 c0.21,0,0.948,0,1.118,0h10.151" />
    <path fill="#472b29" d="M38.349,70.881H26.587c-0.276,0-0.5-0.224-0.5-0.5s0.224-0.5,0.5-0.5h11.762 c2.42,0,4.389-1.969,4.389-4.389c0-2.066-1.466-3.873-3.486-4.295c-0.255-0.053-0.426-0.293-0.394-0.552 c0.023-0.186,0.039-0.374,0.039-0.565c0-2.517-2.047-4.563-4.562-4.563c-1.438,0-2.765,0.663-3.638,1.818 c-0.125,0.166-0.338,0.237-0.54,0.178c-0.199-0.059-0.342-0.234-0.357-0.441c-0.104-1.377-0.779-2.671-1.85-3.549 c-1.083-0.888-2.456-1.282-3.86-1.109c-2.166,0.266-3.956,1.943-4.353,4.081c-0.124,0.667-0.12,1.335,0.013,1.986 c0.044,0.22-0.062,0.442-0.262,0.544c-0.2,0.104-0.443,0.06-0.595-0.104c-0.575-0.618-1.353-0.959-2.19-0.959 c-1.569,0-2.878,1.228-2.981,2.794c-0.01,0.146-0.082,0.279-0.199,0.366c-0.117,0.089-0.268,0.12-0.408,0.089 c-0.841-0.185-1.637-0.132-2.433,0.167c-1.669,0.627-2.835,2.209-2.903,3.938C7.732,66.523,8.166,67.666,9,68.534 c0.835,0.869,1.959,1.348,3.164,1.348h11.269c0.276,0,0.5,0.224,0.5,0.5s-0.224,0.5-0.5,0.5H12.162 c-1.479,0-2.858-0.588-3.884-1.654c-1.025-1.066-1.558-2.469-1.5-3.95c0.083-2.126,1.51-4.069,3.55-4.835 c0.8-0.301,1.626-0.398,2.468-0.299c0.377-1.822,1.998-3.182,3.905-3.182c0.684,0,1.354,0.18,1.944,0.51 c0-0.386,0.035-0.772,0.106-1.159c0.477-2.562,2.621-4.573,5.215-4.891c1.679-0.205,3.32,0.266,4.616,1.328 c1.003,0.823,1.716,1.951,2.038,3.193c1.012-0.916,2.319-1.426,3.714-1.426c3.067,0,5.562,2.496,5.562,5.563 c0,0.083-0.002,0.166-0.007,0.248c2.254,0.673,3.848,2.776,3.848,5.164C43.738,68.465,41.321,70.881,38.349,70.881z" />
    <path fill="#fdfcef" d="M23.754,59.613c-1.808-0.119-3.365,1.13-3.476,2.789c-0.014,0.206-0.005,0.409,0.025,0.606 c-0.349-0.394-0.865-0.661-1.458-0.7c-1.085-0.071-2.022,0.645-2.158,1.62c-0.197-0.054-0.403-0.09-0.616-0.104 c-1.582-0.104-2.944,0.989-3.042,2.441" />
    <path fill="#472b29" d="M13.03,66.514c-0.006,0-0.012,0-0.017-0.001c-0.138-0.009-0.242-0.128-0.233-0.266 c0.107-1.587,1.588-2.789,3.308-2.674c0.137,0.009,0.273,0.026,0.409,0.053c0.274-0.968,1.256-1.645,2.366-1.567 c0.425,0.027,0.823,0.159,1.164,0.382c0-0.019,0.002-0.037,0.003-0.056c0.12-1.795,1.787-3.16,3.742-3.021 c0.138,0.009,0.242,0.128,0.233,0.266s-0.124,0.255-0.266,0.232c-1.651-0.105-3.108,1.037-3.21,2.557 c-0.012,0.184-0.004,0.37,0.023,0.553c0.017,0.109-0.041,0.217-0.141,0.264s-0.219,0.022-0.293-0.061 c-0.323-0.365-0.78-0.584-1.287-0.617c-0.951-0.034-1.775,0.556-1.894,1.404c-0.01,0.071-0.05,0.135-0.11,0.175 c-0.06,0.039-0.133,0.051-0.204,0.032c-0.187-0.051-0.377-0.083-0.567-0.097c-1.44-0.092-2.687,0.896-2.775,2.209 C13.27,66.413,13.16,66.514,13.03,66.514z" />
    <path fill="#fdfcef" d="M40.329,61.281c-1.699-0.801-3.664-0.234-4.389,1.267c-0.09,0.186-0.157,0.379-0.201,0.574" />
    <path fill="#472b29" d="M35.739,63.372c-0.018,0-0.037-0.002-0.056-0.006c-0.134-0.031-0.219-0.165-0.188-0.3 c0.049-0.217,0.123-0.428,0.219-0.627c0.783-1.621,2.902-2.239,4.721-1.385c0.125,0.06,0.179,0.208,0.12,0.333 c-0.059,0.126-0.209,0.176-0.333,0.12c-1.574-0.744-3.394-0.227-4.058,1.149c-0.08,0.165-0.141,0.34-0.182,0.521 C35.956,63.294,35.853,63.372,35.739,63.372z" />
    <g>
        <path fill="#fff" d="M19.774,44H9.744c-0.276,0-0.5-0.224-0.5-0.5s0.224-0.5,0.5-0.5h10.03c0.276,0,0.5,0.224,0.5,0.5 S20.051,44,19.774,44z M23.155,43.5c0-0.276-0.224-0.5-0.5-0.5h-1.446c-0.276,0-0.5,0.224-0.5,0.5s0.224,0.5,0.5,0.5h1.446 C22.932,44,23.155,43.776,23.155,43.5z M27.21,43.5c0-0.276-0.224-0.5-0.5-0.5h-2.546c-0.276,0-0.5,0.224-0.5,0.5 s0.224,0.5,0.5,0.5h2.546C26.987,44,27.21,43.776,27.21,43.5z M27.21,45.5c0-0.276-0.224-0.5-0.5-0.5h-9.616 c-0.276,0-0.5,0.224-0.5,0.5s0.224,0.5,0.5,0.5h9.616C26.987,46,27.21,45.776,27.21,45.5z M15.862,45.5c0-0.276-0.224-0.5-0.5-0.5 h-0.58c-0.276,0-0.5,0.224-0.5,0.5s0.224,0.5,0.5,0.5h0.58C15.638,46,15.862,45.776,15.862,45.5z M13.486,45.5 c0-0.276-0.224-0.5-0.5-0.5h-1.457c-0.276,0-0.5,0.224-0.5,0.5s0.224,0.5,0.5,0.5h1.457C13.262,46,13.486,45.776,13.486,45.5z M22.621,41.5c0-0.276-0.224-0.5-0.5-0.5h-5.027c-0.276,0-0.5,0.224-0.5,0.5s0.224,0.5,0.5,0.5h5.027 C22.398,42,22.621,41.776,22.621,41.5z M22.621,39.5c0-0.276-0.224-0.5-0.5-0.5h-1.257c-0.276,0-0.5,0.224-0.5,0.5 s0.224,0.5,0.5,0.5h1.257C22.398,40,22.621,39.776,22.621,39.5z M19.352,47.5c0-0.276-0.224-0.5-0.5-0.5h-1.758 c-0.276,0-0.5,0.224-0.5,0.5s0.224,0.5,0.5,0.5h1.758C19.129,48,19.352,47.776,19.352,47.5z" />
    </g>
    <g>
        <path fill="#fdfcef" d="M89.178,50.287c1.883,0,3.517,0,3.54,0c2.11,0,3.821-1.674,3.821-3.739 c0-1.802-1.302-3.305-3.035-3.66c0.02-0.158,0.034-0.317,0.034-0.48c0-2.139-1.772-3.873-3.957-3.873 c-1.29,0-2.433,0.607-3.155,1.543c-0.185-2.381-2.358-4.218-4.9-3.913c-1.859,0.223-3.397,1.629-3.739,3.431 c-0.11,0.578-0.098,1.139,0.011,1.665c-0.498-0.525-1.208-0.856-1.998-0.856c-1.446,0-2.627,1.102-2.72,2.494 c-0.657-0.142-1.371-0.133-2.123,0.143c-1.438,0.528-2.462,1.853-2.522,3.356c-0.085,2.133,1.657,3.889,3.818,3.889 c0.164,0,0.741,0,0.874,0h7.934 M82.701,50.287h0.36" />
        <path fill="#472b29" d="M92.718,50.788h-3.54c-0.276,0-0.5-0.224-0.5-0.5s0.224-0.5,0.5-0.5h3.54 c1.831,0,3.321-1.453,3.321-3.239c0-1.524-1.108-2.858-2.636-3.17c-0.256-0.053-0.429-0.294-0.396-0.554 c0.018-0.137,0.03-0.275,0.03-0.417c0-1.86-1.551-3.373-3.457-3.373c-1.092,0-2.098,0.491-2.76,1.349 c-0.126,0.164-0.341,0.231-0.539,0.174c-0.198-0.06-0.339-0.234-0.355-0.44c-0.079-1.02-0.565-1.944-1.369-2.604 c-0.829-0.68-1.885-0.979-2.973-0.853c-1.646,0.197-3.006,1.442-3.307,3.027c-0.094,0.495-0.091,0.99,0.009,1.472 c0.045,0.219-0.06,0.441-0.258,0.545c-0.197,0.102-0.44,0.063-0.594-0.1c-0.428-0.451-1.009-0.7-1.635-0.7 c-1.169,0-2.145,0.891-2.221,2.027c-0.01,0.146-0.082,0.278-0.198,0.366c-0.116,0.087-0.264,0.12-0.406,0.089 c-0.639-0.138-1.243-0.098-1.846,0.125c-1.262,0.463-2.144,1.631-2.195,2.905c-0.035,0.876,0.283,1.709,0.895,2.346 c0.635,0.66,1.496,1.024,2.423,1.024h8.807c0.276,0,0.5,0.224,0.5,0.5s-0.224,0.5-0.5,0.5h-8.807 c-1.185,0-2.331-0.485-3.144-1.331c-0.803-0.836-1.219-1.929-1.173-3.078c0.067-1.675,1.212-3.204,2.849-3.806 c0.61-0.225,1.24-0.304,1.88-0.244c0.344-1.396,1.629-2.424,3.135-2.424c0.493,0,0.977,0.113,1.414,0.323 c0.009-0.242,0.037-0.484,0.083-0.727c0.381-2.009,2.096-3.585,4.17-3.833c1.365-0.167,2.685,0.218,3.726,1.071 c0.748,0.613,1.278,1.409,1.546,2.302c0.791-0.648,1.786-1.007,2.842-1.007c2.458,0,4.457,1.962,4.457,4.373 c0,0.034,0,0.068-0.001,0.103c1.764,0.555,3.003,2.188,3.003,4.038C97.039,48.886,95.101,50.788,92.718,50.788z M83.061,50.788 h-0.36c-0.276,0-0.5-0.224-0.5-0.5s0.224-0.5,0.5-0.5h0.36c0.276,0,0.5,0.224,0.5,0.5S83.337,50.788,83.061,50.788z" />
        <g>
            <path fill="#472b29" d="M91.011,44.984c-0.018,0-0.036-0.002-0.055-0.006c-0.135-0.03-0.22-0.164-0.189-0.299 c0.037-0.164,0.094-0.325,0.17-0.479c0.604-1.224,2.272-1.677,3.722-1.007c0.125,0.058,0.18,0.206,0.122,0.331 c-0.058,0.126-0.207,0.179-0.332,0.122c-1.201-0.556-2.577-0.208-3.063,0.774c-0.058,0.118-0.102,0.242-0.13,0.367 C91.229,44.905,91.126,44.984,91.011,44.984z" />
        </g>
        <g>
            <path fill="#472b29" d="M85.852,50.788h-1.107c-0.276,0-0.5-0.224-0.5-0.5s0.224-0.5,0.5-0.5h1.107 c0.276,0,0.5,0.224,0.5,0.5S86.129,50.788,85.852,50.788z" />
        </g>
    </g>
    <g>
        <path fill="#fff" d="M79.64,33.935h-10.03c-0.276,0-0.5-0.224-0.5-0.5c0-0.276,0.224-0.5,0.5-0.5h10.031 c0.276,0,0.5,0.224,0.5,0.5C80.141,33.711,79.916,33.935,79.64,33.935z M83.021,33.435c0-0.276-0.224-0.5-0.5-0.5h-1.446 c-0.276,0-0.5,0.224-0.5,0.5c0,0.276,0.224,0.5,0.5,0.5h1.446C82.798,33.935,83.021,33.711,83.021,33.435z M87.076,33.435 c0-0.276-0.224-0.5-0.5-0.5H84.03c-0.276,0-0.5,0.224-0.5,0.5c0,0.276,0.224,0.5,0.5,0.5h2.546 C86.852,33.935,87.076,33.711,87.076,33.435z M85.049,29.705c0-0.276-0.224-0.5-0.5-0.5h-9.616c-0.276,0-0.5,0.224-0.5,0.5 s0.224,0.5,0.5,0.5h9.616C84.826,30.205,85.049,29.981,85.049,29.705z M73.701,29.705c0-0.276-0.224-0.5-0.5-0.5h-0.58 c-0.276,0-0.5,0.224-0.5,0.5s0.224,0.5,0.5,0.5h0.58C73.479,30.205,73.701,29.981,73.701,29.705z M71.325,29.705 c0-0.276-0.224-0.5-0.5-0.5h-1.456c-0.276,0-0.5,0.224-0.5,0.5s0.224,0.5,0.5,0.5h1.456C71.102,30.205,71.325,29.981,71.325,29.705 z M82.487,31.57c0-0.276-0.224-0.5-0.5-0.5H76.96c-0.276,0-0.5,0.224-0.5,0.5s0.224,0.5,0.5,0.5h5.027 C82.262,32.07,82.487,31.846,82.487,31.57z M82.487,29.705c0-0.276-0.224-0.5-0.5-0.5H80.73c-0.276,0-0.5,0.224-0.5,0.5 s0.224,0.5,0.5,0.5h1.257C82.262,30.205,82.487,29.981,82.487,29.705z M76.004,31.57c0-0.276-0.224-0.5-0.5-0.5h-1.758 c-0.276,0-0.5,0.224-0.5,0.5s0.224,0.5,0.5,0.5h1.758C75.781,32.07,76.004,31.846,76.004,31.57z" />
    </g>
    <g>
        <path fill="#ce9065" d="M71.798,73.75c-0.195-2.86-0.427-4.474-0.427-4.474c-0.405-2.146-1.28-3.403-3.342-4.026 c-0.09-0.027-0.21-0.071-0.345-0.123c-0.156-0.068-0.354-0.147-0.586-0.238c-1.249-0.528-8.673-3.267-8.673-3.267 c-0.612-0.155-1.01-0.591-1.24-1.082c-0.38-0.811-0.233-2.914-0.233-2.914s-3.104,1.062-5.041,1.424 c-1.9,0.185-5.983-2.272-5.983-2.272s-0.096,3.037-0.225,3.712c-0.102,0.53-0.672,0.978-1.284,1.133l-7.124,2.583 c-0.788,0.206-1.544,0.5-2.209,0.91c-1.793,1.107-2.701,2.769-3.163,4.16c0,0-0.469,3.316-0.45,3.435 c-0.031,0.324-0.063,0.676-0.095,1.039H71.798z" />
        <path fill="#78a0cf" d="M71.688,73.75c-0.122-2.432-0.22-4.355-0.22-4.355c-0.405-2.146-1.28-3.403-3.342-4.026 c-0.09-0.027-0.21-0.071-0.345-0.123c-0.156-0.068-0.354-0.147-0.586-0.238c-0.676-0.286-7.327-2.607-9.464-3.403 c-2.917,2.055-4.229,2.847-6.175,2.847c-2.075,0-3.267-1.256-6.158-3l-3.237,1.195c-0.008-0.004-0.016-0.009-0.024-0.013 l-0.314,0.083l-4.431,1.606c-0.788,0.206-1.544,0.5-2.209,0.911c-1.793,1.107-2.701,2.769-3.163,4.16c0,0-0.469,3.316-0.45,3.435 c-0.01,0.106-0.02,0.452-0.031,0.92H71.688z" />
        <path fill="#472b29" d="M31.43 72.996c-.028 0-.057-.008-.082-.024-.069-.046-.089-.139-.043-.208l4.825-7.383c.045-.069.139-.09.208-.044.069.046.089.139.043.208l-4.825 7.383C31.527 72.971 31.479 72.996 31.43 72.996zM32.916 73.244c-.028 0-.057-.008-.082-.024-.069-.046-.089-.139-.043-.208l5.388-8.244c.045-.07.139-.09.208-.044.069.046.089.139.043.208l-5.388 8.244C33.013 73.219 32.965 73.244 32.916 73.244zM34.754 72.996c-.028 0-.057-.008-.082-.024-.069-.046-.089-.139-.043-.208l5.388-8.244c.045-.069.139-.089.208-.044.069.046.089.139.043.208l-5.388 8.244C34.851 72.971 34.803 72.996 34.754 72.996zM36.256 73.244c-.028 0-.057-.008-.082-.024-.069-.046-.089-.139-.043-.208l5.388-8.244c.046-.07.139-.09.208-.044.069.046.089.139.043.208l-5.388 8.244C36.352 73.219 36.304 73.244 36.256 73.244zM37.811 73.426c-.028 0-.057-.008-.082-.024-.069-.046-.089-.139-.043-.208l3.828-5.857c.045-.069.139-.089.208-.044.069.046.089.139.043.208l-3.828 5.857C37.907 73.402 37.86 73.426 37.811 73.426zM39.422 73.61c-.028 0-.057-.008-.082-.024-.069-.046-.089-.139-.043-.208l1.914-2.929c.045-.069.138-.089.208-.044.069.046.089.139.043.208l-1.914 2.929C39.519 73.586 39.471 73.61 39.422 73.61z" />
        <path fill="#db9e71" d="M63.668,42.75c-0.117-0.008-0.236-0.009-0.36-0.009c-0.965-0.047-1.24,0.338-1.196-0.259 c0.078-1.06-0.07-5.361-0.07-5.578c0-4.456-4.653-8.091-10.792-8.292v-0.013c0.286,0.001,0.248,0.006,0.208,0.007 c-0.039-0.001-0.077-0.006,0.792-0.007v0.013c-6.722,0.202-11.375,3.836-11.375,8.292c0,0.217-0.148,4.517-0.07,5.578 c0.044,0.597-0.231,0.212-1.196,0.259c-0.124,0-0.243,0.001-0.36,0.009c-1.058,0.071-1.914,0.744-2.097,1.578 c0.13,0.079,0.611,3.731,1.391,5.17c0.436,0.803,1.116,0.915,1.815,1.434c0.387,0.287,0.462,0.612,0.568,1.041 c0.392,1.59,1.481,2.942,2.674,4.096c0.589,0.57,4.499,4.738,7.858,4.527c3.375-0.127,7.269-3.957,7.858-4.527 c1.193-1.154,2.282-2.506,2.674-4.096c0.106-0.43,0.18-0.754,0.568-1.041c0.699-0.519,1.379-0.63,1.815-1.434 c0.78-1.439,1.262-5.091,1.391-5.17C65.582,43.494,64.726,42.82,63.668,42.75z" />
        <path fill="#512c2b" d="M51.519 49.809c.683 0 1.345-.298 1.771-.797.043-.05.037-.126-.013-.169l0 0c-.05-.043-.125-.038-.169.012-.347.397-.927.625-1.589.625-.663 0-1.242-.228-1.589-.625-.024-.027-.057-.041-.091-.041-.028 0-.056.01-.078.029-.05.043-.056.119-.013.169C50.174 49.511 50.836 49.809 51.519 49.809zM49.341 40.583l.433-.832c-1.832-.429-3.941-.361-5.682.179l.546.811C46.069 40.269 47.829 40.209 49.341 40.583zM58.512 40.583l.433-.832c-1.832-.429-3.941-.361-5.682.179l.546.811C55.241 40.269 57.001 40.209 58.512 40.583zM46.704 41.757c-.44 0-.826.291-1.049.731.056-.017.113-.029.174-.029.361 0 .653.327.653.729 0 .403-.293.729-.653.729-.118 0-.227-.038-.323-.099.154.661.632 1.142 1.199 1.142.691 0 1.252-.717 1.252-1.602C47.956 42.475 47.395 41.757 46.704 41.757zM56.281 41.757c-.376 0-.712.213-.941.548.072-.03.149-.049.23-.049.361 0 .653.327.653.729 0 .403-.293.729-.653.729-.224 0-.421-.126-.539-.318.016.867.569 1.563 1.25 1.563.691 0 1.252-.717 1.252-1.602C57.532 42.475 56.972 41.757 56.281 41.757zM56.812 51.665c.051-.042.059-.117.018-.168l0 0c-.041-.051-.117-.06-.169-.018-1.128.899-3.002 1.415-5.141 1.415s-4.013-.516-5.142-1.416c-.022-.018-.048-.026-.075-.026-.035 0-.07.015-.094.045-.041.051-.034.127.017.169 1.274 1.041 3.253 1.663 5.293 1.663C53.559 53.328 55.537 52.707 56.812 51.665z" />
        <path fill="#895d3d" d="M63.729 47.631l-.596-.066.2-1.779-1.011.438-.238-.551 1.486-.644c.1-.043.212-.028.298.034.086.063.132.169.119.274L63.729 47.631zM39.513 47.288l-.259-2.294c-.013-.105.033-.211.119-.274.086-.065.199-.077.298-.034l1.486.644-.238.551-1.011-.438.2 1.779L39.513 47.288z" />
        <path fill="#472b29" d="M40.852 51.73c-.001 0-.003 0-.004 0-.11-.002-.198-.094-.196-.204l.164-8.647c.002-.109.092-.196.2-.196.001 0 .003 0 .004 0 .11.002.198.094.196.204l-.164 8.647C41.05 51.644 40.96 51.73 40.852 51.73zM62.231 51.73c-.108 0-.198-.087-.2-.196l-.165-8.647c-.002-.11.086-.202.196-.204.126-.01.202.086.204.196l.165 8.647c.002.11-.086.202-.196.204C62.234 51.73 62.232 51.73 62.231 51.73zM51.624 61.131c-2.038 0-5.461-2.611-5.611-2.728-.109-.084-.13-.241-.046-.351.083-.11.239-.132.351-.046.036.028 3.674 2.824 5.497 2.613 1.827-.218 4.759-2.377 4.789-2.399.109-.081.267-.059.35.053.082.11.059.267-.053.35-.124.092-3.067 2.26-5.027 2.493C51.793 61.126 51.71 61.131 51.624 61.131z" />
        <path fill="#fdfcef" d="M46.655,68.265c0.381,1.03-0.189,2.514-0.217,3.563c-0.018,0.688,0.037,1.317,0.138,1.922h10.61 c0.376-0.595,0.788-1.173,1.265-1.728c-0.734-0.922-1.246-1.991-1.991-2.903c-0.18-0.22-0.193-0.49,0-0.707 c0.42-0.473,1.003-0.712,1.575-0.949c0.63-0.26,1.24-0.544,1.877-0.779c-0.402-1.668-1.195-3.179-2.187-4.573 c-0.131-0.185-0.105-0.364-0.005-0.499c-2.91,2.05-4.221,2.841-6.166,2.841c-1.983,0-3.176-1.154-5.801-2.778 c-0.245,1.521-1.625,3.575-0.602,5.069C45.556,67.334,46.386,67.538,46.655,68.265z" />
        <path fill="#568bc1" d="M58.558 73.75l1.157-2.017-2.633-3.015 4.084-1.507c-1.72-5.525-4.084-6.53-4.084-6.53-.547 4.226-1.456 8.921-2.36 13.069H58.558zM43.164 71.733l1.138 2.017h3.81c-.879-4.148-1.769-8.843-2.315-13.069 0 0-2.363 1.005-4.084 6.53l4.084 1.507L43.164 71.733z" />
        <path fill="#472b29" d="M51.296,29.321l-0.274-0.015c-0.095-0.007-0.19-0.015-0.288-0.018 c-0.27-0.01-0.483-0.23-0.483-0.5c0-0.276,0.224-0.513,0.5-0.513c0.442,0,0.627,0.002,0.698,0.004 c0.011-0.001,0.105-0.004,0.302-0.004c0.276,0,0.5,0.224,0.5,0.5v0.013c0,0.27-0.213,0.49-0.482,0.5 c-0.091,0.003-0.18,0.01-0.269,0.018L51.296,29.321z" />
        <path fill="#472b29" d="M71.589,74.25H31.467c-0.137,0-0.268-0.056-0.361-0.154c-0.095-0.099-0.145-0.231-0.138-0.368 c0.097-2.15,0.251-3.591,0.472-4.404c0.655-2.418,1.613-3.362,3.383-4.455c0.662-0.408,1.451-0.734,2.345-0.969l7.081-2.568 c0.503-0.132,0.905-0.458,0.963-0.757c0.048-0.251,0.103-0.986,0.152-2.039c-1.026-0.726-1.865-1.382-2.111-1.621 c-1.562-1.527-2.455-2.919-2.811-4.382c-0.109-0.447-0.157-0.602-0.383-0.771c-0.209-0.157-0.416-0.272-0.613-0.385 c-0.481-0.272-0.979-0.554-1.342-1.229c-0.839-1.563-1.451-4.521-1.451-5.465c0-0.035,0.004-0.071,0.012-0.105 c0.234-1.086,1.284-1.903,2.552-1.989c0.128-0.009,0.258-0.01,0.394-0.01c0.271-0.014,0.501,0.007,0.684,0.03 c-0.035-1.206,0.036-3.758,0.068-4.912c0.008-0.288,0.014-0.479,0.014-0.521c0-4.658,4.669-8.464,10.859-8.853 c6.577,0.384,11.308,4.107,11.308,8.853c0,0.041,0.006,0.23,0.014,0.518c0.033,1.178,0.106,3.813,0.066,4.915 c0.184-0.025,0.418-0.05,0.71-0.029c0.11,0.005,0.24,0.001,0.369,0.009c1.268,0.086,2.317,0.903,2.552,1.989 c0.008,0.034,0.012,0.07,0.012,0.105c0,1.09-0.65,3.972-1.451,5.465c-0.362,0.676-0.86,0.957-1.342,1.229 c-0.197,0.112-0.404,0.228-0.612,0.384c-0.227,0.17-0.274,0.324-0.378,0.748c-0.361,1.486-1.255,2.878-2.815,4.404 c-0.258,0.251-1.16,0.986-2.242,1.768c-0.003,0.868,0.073,1.526,0.214,1.826c0.141,0.299,0.412,0.683,0.911,0.81 c0.353,0.127,7.498,2.764,8.744,3.292c0.225,0.086,0.428,0.169,0.589,0.238c0.103,0.039,0.212,0.079,0.293,0.104 c2.122,0.641,3.226,1.96,3.688,4.411l0.226,4.363c0.007,0.137-0.042,0.271-0.137,0.37C71.856,74.193,71.726,74.25,71.589,74.25z M31.992,73.25h39.07l-0.19-3.771c-0.386-2.021-1.226-3.041-2.987-3.572c-0.1-0.03-0.23-0.078-0.379-0.135 c-0.172-0.073-0.363-0.15-0.589-0.237c-1.238-0.525-8.591-3.238-8.665-3.266c-0.634-0.158-1.191-0.64-1.52-1.338 c-0.227-0.483-0.329-1.33-0.306-2.52c0.003-0.158,0.081-0.306,0.21-0.397c1.211-0.862,2.129-1.62,2.331-1.817 c1.42-1.389,2.227-2.629,2.537-3.901c0.116-0.477,0.23-0.943,0.754-1.335c0.244-0.184,0.487-0.322,0.721-0.454 c0.422-0.239,0.728-0.411,0.953-0.832c0.754-1.405,1.309-4.022,1.331-4.937c-0.163-0.618-0.839-1.1-1.629-1.152 c-0.106-0.007-0.215-0.008-0.327-0.008c-0.325-0.015-0.547,0.021-0.724,0.047c-0.232,0.039-0.525,0.085-0.762-0.133 c-0.244-0.225-0.221-0.554-0.21-0.711c0.062-0.842-0.024-3.906-0.057-5.061c-0.008-0.302-0.014-0.502-0.014-0.545 c0-4.199-4.334-7.502-10.306-7.854c-5.596,0.354-9.861,3.731-9.861,7.854c0,0.043-0.006,0.244-0.014,0.549 c-0.032,1.153-0.118,4.216-0.058,5.056c0.011,0.158,0.035,0.486-0.209,0.711c-0.237,0.219-0.529,0.172-0.762,0.134 c-0.177-0.027-0.393-0.063-0.699-0.048c-0.137,0.001-0.245,0.002-0.352,0.009c-0.79,0.053-1.466,0.534-1.629,1.152 c0.024,0.907,0.617,3.605,1.331,4.937c0.226,0.421,0.531,0.593,0.953,0.832c0.233,0.132,0.477,0.271,0.722,0.455 c0.522,0.391,0.637,0.857,0.747,1.309c0.316,1.298,1.123,2.538,2.544,3.928c0.2,0.194,1.08,0.886,2.211,1.676 c0.141,0.099,0.221,0.261,0.214,0.433c-0.058,1.298-0.119,2.124-0.182,2.455c-0.153,0.8-0.94,1.342-1.651,1.523l-7.078,2.567 c-0.841,0.224-1.538,0.511-2.116,0.867c-1.604,0.99-2.368,1.746-2.943,3.865C32.224,70.252,32.085,71.483,31.992,73.25z" />
        <g>
            <path fill="#5e2e2e" d="M66.331,35.074c-2.259,0.165-3.678-2.542-5.151-4.539c-3.593-4.868-9.882-6.379-15.115-3.574 c-1.393,0.747-2.509,1.545-2.831,2.269c-2.646,1.125-4.131,4.562-4.714,7.867c-0.68,3.856,2.587,9.824,2.781,6.503 c0.14-2.397,1.035-5.747,1.941-7.831c0.407-0.936,0.777-1.929,1.043-2.955c0.312,2.492,3.567,4.863,5.607,4.885 c0.218,0.002,0.318-0.858,0.259-2.031c0.533,0.956,1.291,1.758,2.136,2.349c1.327,0.929,2.855,1.395,4.379,1.722 c-0.54-0.226-0.859-0.892-0.958-1.548c-0.052-0.341-0.056-0.686-0.051-1.033c1.331,0.921,2.759,1.6,4.313,1.658 c0.179,0.007,0.36,0.001,0.54-0.01c0.807,1.668,1.084,3.674,1.167,5.103c0.194,3.321,2.667-2.226,1.987-6.082 c-0.005-0.028-0.011-0.057-0.016-0.086C64.666,37.1,65.595,36.193,66.331,35.074z M44.622,31.041 c0.005-0.046,0.01-0.093,0.015-0.139c0.017,0.006,0.033,0.012,0.051,0.017C44.663,30.959,44.644,31,44.622,31.041z" />
        </g>
        <g>
            <path fill="#472b29" d="M48.413 74L44.155 74 42.859 71.701 45.369 68.827 41.373 67.353 43.772 62.063 44.228 62.271 42.051 67.069 46.223 68.608 43.469 71.764 44.448 73.5 47.81 73.5 45.504 61.297 45.996 61.203z" />
        </g>
        <g>
            <path fill="#472b29" d="M58.667 74L54.41 74 56.827 61.203 57.319 61.297 55.014 73.5 58.375 73.5 59.354 71.765 56.601 68.608 60.772 67.069 58.596 62.271 59.051 62.063 61.45 67.353 57.454 68.827 59.964 71.702z" />
        </g>
        <g>
            <path fill="#472b29" d="M51.601,64.876c-0.713,0-1.476-0.218-2.301-0.655c-1.072-0.567-3.584-2.274-3.69-2.347 c-0.114-0.078-0.144-0.233-0.066-0.348c0.078-0.115,0.234-0.144,0.348-0.066c0.025,0.018,2.596,1.765,3.644,2.319 c1.283,0.68,2.381,0.775,3.354,0.289c0.12-0.06,0.273-0.012,0.335,0.112c0.062,0.123,0.012,0.273-0.112,0.335 C52.632,64.756,52.13,64.876,51.601,64.876z" />
        </g>
        <g>
            <path fill="#472b29" d="M54.625,63.833c-0.084,0-0.167-0.043-0.214-0.121c-0.071-0.118-0.033-0.271,0.085-0.343 l2.208-1.333c0.116-0.071,0.271-0.034,0.343,0.085c0.071,0.118,0.033,0.271-0.085,0.343l-2.208,1.333 C54.714,63.821,54.669,63.833,54.625,63.833z" />
        </g>
    </g>
    <g>
        <path fill="#472b29" d="M60.56,78.04c-0.128,0-0.256-0.049-0.354-0.146c-0.195-0.195-0.195-0.512,0-0.707l2.784-2.785 c0.195-0.195,0.512-0.195,0.707,0s0.195,0.512,0,0.707l-2.784,2.785C60.816,77.992,60.688,78.04,60.56,78.04z" />
        <path fill="#88ae45" d="M48.689,89.541l-0.131-0.131c-1.058-1.058-1.058-2.79,0-3.848l8.088-8.088 c1.058-1.058,2.79-1.058,3.848,0l0.131,0.131c1.058,1.058,1.058,2.79,0,3.848l-8.088,8.088 C51.479,90.6,49.747,90.6,48.689,89.541z" />
        <path fill="#472b29" d="M50.613,90.837c-0.824,0-1.649-0.314-2.277-0.942l0,0l-0.131-0.131 c-1.255-1.256-1.255-3.299,0-4.555l8.088-8.088c1.254-1.255,3.298-1.257,4.556,0l0.131,0.131 c0.605,0.605,0.939,1.415,0.939,2.277c0,0.863-0.334,1.672-0.94,2.278l-8.087,8.088C52.263,90.523,51.438,90.837,50.613,90.837z M49.042,89.188c0.865,0.866,2.276,0.864,3.142,0l8.087-8.088c0.418-0.417,0.647-0.975,0.647-1.571 c0-0.595-0.229-1.153-0.647-1.57l-0.131-0.131c-0.866-0.866-2.274-0.866-3.141,0l-8.088,8.088c-0.865,0.866-0.865,2.275,0,3.141 L49.042,89.188z" />
        <path fill="#d1dc82" d="M60.264,77.825c-0.923-0.923-2.374-0.984-3.223-0.135l-0.154,0.154l0.336,0.336l3.022,3.022 l0.154-0.154C61.248,80.199,61.187,78.749,60.264,77.825z" />
        <path fill="#472b29" d="M60.249,81.982c-0.096,0-0.192-0.037-0.266-0.11l-3.58-3.581c-0.146-0.146-0.146-0.384,0-0.53 c0.146-0.146,0.385-0.146,0.531,0l3.58,3.581c0.146,0.146,0.146,0.384,0,0.53C60.442,81.945,60.345,81.982,60.249,81.982z" />
        <path fill="#77cbd2" d="M72.122 56.13A9.847 9.847 0 1 0 72.122 75.824A9.847 9.847 0 1 0 72.122 56.13Z" opacity=".74" />
        <path fill="#fdfcef" d="M80.85,57.249c-4.834-4.834-12.672-4.834-17.506,0s-4.834,12.672,0,17.506 c4.834,4.834,12.672,4.834,17.506,0C85.685,69.921,85.685,62.083,80.85,57.249z M79.06,72.965c-3.845,3.845-10.08,3.845-13.925,0 s-3.845-10.08,0-13.925s10.08-3.845,13.925,0S82.905,69.12,79.06,72.965z" />
        <path fill="#472b29" d="M72.097 78.874c-3.298 0-6.596-1.255-9.106-3.766-5.021-5.021-5.021-13.191 0-18.213 5.022-5.022 13.192-5.02 18.213 0 5.021 5.021 5.021 13.191 0 18.213C78.693 77.619 75.395 78.874 72.097 78.874zM72.097 54.13c-3.042 0-6.083 1.157-8.399 3.473-4.632 4.631-4.632 12.167 0 16.799 4.633 4.631 12.168 4.629 16.799 0 4.632-4.631 4.632-12.167 0-16.799C78.181 55.288 75.139 54.13 72.097 54.13zM72.097 76.349c-2.764 0-5.361-1.076-7.315-3.03-1.954-1.954-3.03-4.552-3.03-7.316s1.076-5.362 3.03-7.316c1.954-1.955 4.552-3.031 7.315-3.031s5.362 1.076 7.316 3.031c1.954 1.954 3.031 4.552 3.031 7.316s-1.077 5.362-3.031 7.316S74.861 76.349 72.097 76.349zM72.097 56.656c-2.496 0-4.844.972-6.608 2.738-1.766 1.765-2.737 4.112-2.737 6.609s.972 4.844 2.737 6.609 4.112 2.737 6.608 2.737c2.497 0 4.844-.972 6.609-2.737s2.738-4.112 2.738-6.609-.973-4.844-2.738-6.609C76.941 57.628 74.594 56.656 72.097 56.656zM49.991 90.385c-.053 0-.102-.034-.119-.087l-1.377-4.28c-.021-.065.016-.136.081-.157.065-.02.136.015.157.081l1.377 4.28c.021.065-.016.136-.081.157C50.016 90.383 50.003 90.385 49.991 90.385zM50.864 90.088c-.054 0-.104-.035-.12-.089l-1.562-5.245c-.02-.066.019-.136.084-.155.071-.021.137.019.156.084l1.562 5.245c.02.066-.019.136-.084.155C50.887 90.087 50.875 90.088 50.864 90.088z" />
        <g>
            <path fill="#472b29" d="M51.389,88.245c-0.054,0-0.104-0.035-0.12-0.089l-1.307-4.389c-0.02-0.066,0.019-0.136,0.084-0.155 c0.073-0.02,0.137,0.019,0.156,0.084l1.307,4.389c0.02,0.066-0.019,0.136-0.084,0.155C51.413,88.244,51.401,88.245,51.389,88.245z" />
        </g>
        <g>
            <path fill="#472b29" d="M51.921,86.321c-0.054,0-0.104-0.035-0.12-0.089l-0.921-3.094c-0.02-0.066,0.019-0.136,0.084-0.155 c0.071-0.021,0.137,0.019,0.156,0.084l0.921,3.094c0.02,0.066-0.019,0.136-0.084,0.155C51.945,86.319,51.933,86.321,51.921,86.321 z" />
        </g>
    </g>
</svg>