<svg xmlns="http://www.w3.org/2000/svg" viewBox="0 0 100 100">
    <path fill="#c8ede6" d="M87.234,55.803c0.3-0.616,0.566-1.264,0.796-1.943c2.633-7.77-1.349-17.078-9.733-19.325c-0.906-11.384-8.906-19.193-17.941-20.526c-10.341-1.525-19.814,5.044-22.966,15.485c-3.799-1.346-7.501-1.182-10.99,0.857c-1.583,0.732-3.031,1.812-4.33,3.233c-1.907,2.086-3.147,4.719-3.652,7.495c-0.748,0.118-1.483,0.236-2.176,0.484c-4.04,1.449-6.589,4.431-7.288,8.923c-0.435,2.797,0.443,5.587,0.933,6.714c1.935,4.455,6.422,6.98,10.981,6.312c0.227-0.033,0.557,0.069,0.752,0.233c0.241,7.12,3.698,13.417,8.884,17.014c8.321,5.772,19.027,3.994,25.781-3.921c2.894,2.96,6.338,4.398,10.384,3.876c4.023-0.519,7.147-2.739,9.426-6.349c1.053,0.283,2.051,0.691,3.083,0.804c4.042,0.442,7.297-1.184,9.732-4.8c0.083-0.124,0.203-0.219,0.306-0.328c0.348-0.798,0.696-1.596,1.044-2.394c0.155-1.211,0.429-2.423,0.443-3.632C90.742,60.76,89.411,57.793,87.234,55.803z" />
    <path fill="#fdfcef" d="M41.337,66.175c0,0,11.691,0,11.762,0c2.7,0,4.888-2.189,4.888-4.889c0-2.355-1.666-4.321-3.884-4.784c0.026-0.206,0.043-0.415,0.043-0.628c0-2.796-2.267-5.063-5.063-5.063c-1.651,0-3.113,0.794-4.037,2.017c-0.236-3.113-3.017-5.514-6.27-5.116c-2.379,0.291-4.346,2.13-4.784,4.486c-0.14,0.756-0.126,1.489,0.014,2.177c-0.638-0.687-1.546-1.119-2.557-1.119c-1.85,0-3.361,1.441-3.48,3.261c-0.84-0.186-1.754-0.174-2.717,0.188c-1.84,0.691-3.15,2.423-3.227,4.387c-0.109,2.789,2.12,5.085,4.885,5.085c0.21,0,0.948,0,1.118,0h10.151" />
    <path fill="#472b29" d="M53.099,66.675H41.337c-0.276,0-0.5-0.224-0.5-0.5s0.224-0.5,0.5-0.5h11.762c2.419,0,4.388-1.969,4.388-4.389c0-2.067-1.466-3.873-3.486-4.295c-0.255-0.053-0.426-0.293-0.394-0.552c0.023-0.186,0.039-0.374,0.039-0.565c0-2.517-2.047-4.563-4.563-4.563c-1.439,0-2.765,0.663-3.638,1.818c-0.125,0.166-0.341,0.236-0.54,0.178c-0.2-0.059-0.342-0.234-0.358-0.441c-0.105-1.377-0.779-2.671-1.851-3.549c-1.083-0.888-2.452-1.282-3.86-1.109c-2.166,0.266-3.956,1.943-4.353,4.081c-0.124,0.668-0.12,1.337,0.012,1.986c0.045,0.22-0.062,0.442-0.261,0.544c-0.198,0.105-0.443,0.06-0.595-0.104c-0.575-0.618-1.353-0.959-2.19-0.959c-1.569,0-2.878,1.227-2.981,2.793c-0.01,0.146-0.082,0.28-0.199,0.367c-0.117,0.089-0.267,0.118-0.408,0.089c-0.84-0.185-1.637-0.132-2.433,0.167c-1.669,0.628-2.836,2.211-2.903,3.939c-0.047,1.207,0.387,2.35,1.222,3.218c0.835,0.868,1.959,1.347,3.164,1.347h11.269c0.276,0,0.5,0.224,0.5,0.5s-0.224,0.5-0.5,0.5H26.912c-1.479,0-2.859-0.587-3.884-1.654c-1.025-1.065-1.558-2.468-1.5-3.949c0.083-2.126,1.51-4.069,3.551-4.836c0.8-0.3,1.628-0.397,2.468-0.299c0.376-1.822,1.997-3.182,3.905-3.182c0.684,0,1.354,0.18,1.944,0.51c0-0.385,0.035-0.772,0.107-1.159c0.476-2.562,2.62-4.573,5.215-4.891c1.678-0.205,3.32,0.266,4.615,1.328c1.004,0.822,1.716,1.95,2.039,3.193c1.012-0.916,2.319-1.426,3.713-1.426c3.067,0,5.563,2.496,5.563,5.563c0,0.083-0.002,0.166-0.007,0.248c2.254,0.673,3.848,2.776,3.848,5.164C58.488,64.258,56.071,66.675,53.099,66.675z" />
    <path fill="#fdfcef" d="M38.504,55.407c-1.808-0.119-3.365,1.13-3.476,2.789c-0.014,0.206-0.005,0.409,0.025,0.606c-0.349-0.394-0.865-0.661-1.458-0.7c-1.085-0.071-2.022,0.645-2.158,1.62c-0.197-0.054-0.403-0.09-0.616-0.104c-1.582-0.104-2.944,0.989-3.042,2.441" />
    <path fill="#472b29" d="M27.78,62.308c-0.006,0-0.012,0-0.017-0.001c-0.138-0.009-0.242-0.128-0.233-0.266c0.106-1.587,1.593-2.794,3.308-2.674c0.137,0.009,0.273,0.026,0.409,0.053c0.273-0.968,1.253-1.648,2.366-1.567c0.425,0.027,0.824,0.16,1.163,0.382c0.001-0.019,0.002-0.037,0.003-0.057c0.12-1.794,1.784-3.155,3.742-3.021c0.138,0.009,0.242,0.128,0.233,0.266c-0.009,0.138-0.125,0.252-0.266,0.232c-1.649-0.104-3.108,1.037-3.21,2.557c-0.013,0.185-0.005,0.37,0.023,0.552c0.017,0.109-0.041,0.218-0.141,0.265c-0.098,0.047-0.219,0.022-0.293-0.061c-0.322-0.364-0.779-0.583-1.288-0.617c-0.937-0.046-1.775,0.555-1.894,1.404c-0.01,0.071-0.05,0.135-0.11,0.175s-0.133,0.051-0.204,0.032c-0.187-0.051-0.377-0.083-0.567-0.097c-1.434-0.09-2.687,0.896-2.775,2.209C28.02,62.207,27.911,62.308,27.78,62.308z" />
    <path fill="#fdfcef" d="M55.079,57.075c-1.699-0.801-3.664-0.234-4.389,1.267c-0.09,0.186-0.157,0.379-0.201,0.574" />
    <path fill="#472b29" d="M50.489,59.166c-0.018,0-0.037-0.002-0.056-0.006c-0.134-0.031-0.219-0.165-0.188-0.3c0.049-0.215,0.123-0.426,0.219-0.626c0.784-1.623,2.904-2.242,4.721-1.385c0.125,0.06,0.179,0.208,0.12,0.333s-0.209,0.177-0.333,0.12c-1.574-0.743-3.393-0.227-4.058,1.148c-0.08,0.167-0.142,0.342-0.182,0.521C50.706,59.088,50.603,59.166,50.489,59.166z" />
    <path fill="#fff" d="M16.899 47.839H6.869c-.276 0-.5-.224-.5-.5s.224-.5.5-.5h10.03c.276 0 .5.224.5.5S17.176 47.839 16.899 47.839zM19.781 47.839h-1.446c-.276 0-.5-.224-.5-.5s.224-.5.5-.5h1.446c.276 0 .5.224.5.5S20.057 47.839 19.781 47.839zM23.835 47.839h-2.545c-.276 0-.5-.224-.5-.5s.224-.5.5-.5h2.545c.276 0 .5.224.5.5S24.111 47.839 23.835 47.839zM23.835 49.704h-9.616c-.276 0-.5-.224-.5-.5s.224-.5.5-.5h9.616c.276 0 .5.224.5.5S24.111 49.704 23.835 49.704zM12.487 49.704h-.58c-.276 0-.5-.224-.5-.5s.224-.5.5-.5h.58c.276 0 .5.224.5.5S12.764 49.704 12.487 49.704zM10.11 49.704H8.654c-.276 0-.5-.224-.5-.5s.224-.5.5-.5h1.456c.276 0 .5.224.5.5S10.387 49.704 10.11 49.704zM19.246 45.974h-5.027c-.276 0-.5-.224-.5-.5s.224-.5.5-.5h5.027c.276 0 .5.224.5.5S19.522 45.974 19.246 45.974zM19.246 44.109h-1.257c-.276 0-.5-.224-.5-.5s.224-.5.5-.5h1.257c.276 0 .5.224.5.5S19.522 44.109 19.246 44.109zM15.977 51.569h-1.759c-.276 0-.5-.224-.5-.5s.224-.5.5-.5h1.759c.276 0 .5.224.5.5S16.254 51.569 15.977 51.569z" />
    <path fill="#fdfcef" d="M79.178,75.54c1.883,0,3.517,0,3.54,0c2.11,0,3.821-1.674,3.821-3.739c0-1.802-1.302-3.305-3.035-3.66c0.02-0.158,0.034-0.317,0.034-0.48c0-2.139-1.772-3.873-3.957-3.873c-1.29,0-2.433,0.607-3.155,1.543c-0.185-2.381-2.358-4.218-4.9-3.913c-1.859,0.223-3.397,1.629-3.739,3.431c-0.11,0.578-0.098,1.139,0.011,1.665c-0.498-0.525-1.208-0.856-1.998-0.856c-1.446,0-2.627,1.102-2.72,2.494c-0.657-0.142-1.371-0.133-2.123,0.143c-1.438,0.528-2.462,1.853-2.522,3.356c-0.085,2.133,1.657,3.889,3.818,3.889c0.164,0,0.741,0,0.874,0h7.934 M72.701,75.54h0.36" />
    <path fill="#472b29" d="M82.719,76.04h-3.54c-0.276,0-0.5-0.224-0.5-0.5s0.224-0.5,0.5-0.5h3.54c1.831,0,3.321-1.453,3.321-3.239c0-1.524-1.108-2.858-2.636-3.17c-0.256-0.053-0.429-0.294-0.396-0.554c0.018-0.137,0.03-0.275,0.03-0.417c0-1.859-1.551-3.372-3.457-3.372c-1.093,0-2.099,0.491-2.759,1.348c-0.127,0.164-0.34,0.23-0.539,0.174c-0.198-0.06-0.339-0.234-0.355-0.44c-0.079-1.02-0.565-1.944-1.369-2.604c-0.829-0.68-1.885-0.98-2.973-0.853c-1.646,0.197-3.006,1.442-3.308,3.028c-0.094,0.494-0.09,0.989,0.01,1.471c0.045,0.219-0.06,0.441-0.258,0.545c-0.197,0.103-0.44,0.063-0.595-0.1c-0.429-0.451-1.009-0.7-1.635-0.7c-1.169,0-2.145,0.891-2.221,2.027c-0.01,0.146-0.082,0.278-0.198,0.366c-0.116,0.087-0.264,0.122-0.406,0.089c-0.639-0.138-1.243-0.098-1.846,0.125c-1.262,0.463-2.144,1.631-2.195,2.905c-0.035,0.876,0.283,1.709,0.896,2.346c0.635,0.661,1.495,1.024,2.422,1.024h8.808c0.276,0,0.5,0.224,0.5,0.5s-0.224,0.5-0.5,0.5h-8.808c-1.185,0-2.331-0.485-3.144-1.331c-0.803-0.835-1.219-1.929-1.173-3.078c0.067-1.675,1.212-3.204,2.849-3.806c0.61-0.225,1.239-0.304,1.88-0.244c0.344-1.396,1.629-2.424,3.135-2.424c0.493,0,0.976,0.113,1.414,0.323c0.009-0.241,0.036-0.483,0.082-0.726c0.382-2.01,2.097-3.586,4.171-3.834c1.366-0.167,2.685,0.218,3.726,1.071c0.748,0.613,1.278,1.409,1.546,2.302c0.791-0.647,1.785-1.006,2.842-1.006c2.458,0,4.457,1.961,4.457,4.372c0,0.034,0,0.068-0.001,0.103c1.764,0.555,3.003,2.188,3.003,4.038C87.039,74.138,85.101,76.04,82.719,76.04z M73.06,76.04h-0.359c-0.276,0-0.5-0.224-0.5-0.5s0.224-0.5,0.5-0.5h0.359c0.276,0,0.5,0.224,0.5,0.5S73.337,76.04,73.06,76.04z" />
    <path fill="#472b29" d="M81.011 70.236c-.018 0-.036-.002-.055-.006-.135-.03-.22-.164-.189-.299.037-.165.094-.326.169-.479.605-1.224 2.276-1.675 3.722-1.007.125.058.18.206.122.331-.058.126-.207.179-.332.122-1.201-.555-2.578-.208-3.063.774-.058.117-.101.24-.129.367C81.229 70.157 81.126 70.236 81.011 70.236zM75.852 76.04h-1.107c-.276 0-.5-.224-.5-.5s.224-.5.5-.5h1.107c.276 0 .5.224.5.5S76.129 76.04 75.852 76.04z" />
    <path fill="#fff" d="M70.077 21.562H60.047c-.276 0-.5-.224-.5-.5s.224-.5.5-.5h10.031c.276 0 .5.224.5.5S70.354 21.562 70.077 21.562zM72.958 21.562h-1.446c-.276 0-.5-.224-.5-.5s.224-.5.5-.5h1.446c.276 0 .5.224.5.5S73.235 21.562 72.958 21.562zM77.013 21.562h-2.546c-.276 0-.5-.224-.5-.5s.224-.5.5-.5h2.546c.276 0 .5.224.5.5S77.289 21.562 77.013 21.562zM74.987 17.832h-9.616c-.276 0-.5-.224-.5-.5s.224-.5.5-.5h9.616c.276 0 .5.224.5.5S75.264 17.832 74.987 17.832zM63.639 17.832h-.58c-.276 0-.5-.224-.5-.5s.224-.5.5-.5h.58c.276 0 .5.224.5.5S63.915 17.832 63.639 17.832zM61.263 17.832h-1.457c-.276 0-.5-.224-.5-.5s.224-.5.5-.5h1.457c.276 0 .5.224.5.5S61.539 17.832 61.263 17.832zM72.424 19.697h-5.027c-.276 0-.5-.224-.5-.5s.224-.5.5-.5h5.027c.276 0 .5.224.5.5S72.701 19.697 72.424 19.697z" />
    <path fill="#fff" d="M72.424 17.832h-1.257c-.276 0-.5-.224-.5-.5s.224-.5.5-.5h1.257c.276 0 .5.224.5.5S72.701 17.832 72.424 17.832zM65.941 19.697h-1.759c-.276 0-.5-.224-.5-.5s.224-.5.5-.5h1.759c.276 0 .5.224.5.5S66.218 19.697 65.941 19.697z" />
    <path fill="#d8ad8f" d="M68.617,65.256c-0.685-0.479-9.479-3.523-9.479-3.523c-0.559-0.149-0.87-0.6-0.969-1.105c-0.12-0.609-0.183-1.584-0.215-2.549c2.367-1.3,4.223-3.204,5.673-5.564c0.241-0.392,0.43-1.098,0.434-1.557c0.009-0.911,0.009-1.822,0.011-2.734c0.561-0.079,0.949-0.398,1.171-1.097c0.366-1.154,0.911-3.561,0.918-3.582c0.49-1.495-0.237-2.266-1.659-2.238c0.177-0.11,0.721-0.665,0.936-1.094c0.034,0.001,0.067,0.006,0.102,0.006c0.139,0,0.274-0.012,0.408-0.029c1.871,0.604,4.721,0.235,5.471-4.157c-0.687,0.882-1.829,1.256-2.787,1.169c-0.007-0.4-0.095-0.78-0.251-1.126c0.554-0.518,0.898-1.241,0.898-2.041c0-1.576-1.332-2.854-2.976-2.854c-0.012,0-0.023,0.002-0.035,0.002c0.115-0.35,0.178-0.721,0.178-1.107c0-2.025-1.712-3.667-3.824-3.667c-0.363,0-0.713,0.052-1.046,0.142c0.002-0.048,0.008-0.094,0.008-0.142c0-2.4-2.137-4.345-4.773-4.345c-1.524,0-2.878,0.652-3.752,1.664c-0.972-0.609-2.193-0.975-3.524-0.975c-3.161,0-5.724,2.049-5.724,4.577c0,0.112,0.011,0.221,0.021,0.331c-0.743,0.356-1.315,0.935-1.567,1.684c-0.248,0.737,0.566,2.8,0.535,2.873l0,0c-0.208,0.002-2.192,0.147-1.754,2.176c0.095,0.439,0.806,6.723,1.184,6.909c-1.421-0.028-2.145,0.748-1.654,2.243c0.007,0.021,0.552,2.428,0.918,3.582c0.246,0.776,0.697,1.086,1.363,1.115c0.007,0.77,0.009,1.54-0.025,2.308c-0.042,0.966,0.25,1.81,0.792,2.596c1.387,2.008,3.138,3.649,5.258,4.885c-0.032,0.966-0.094,1.953-0.212,2.598c-0.093,0.506-0.41,0.957-0.969,1.105l-7.189,2.47c-0.72,0.197-1.411,0.478-2.018,0.871c-3.173,2.05-3.361,6.131-3.299,6.363H53.42h18.224C71.706,71.204,71.567,67.317,68.617,65.256z" />
    <path fill="#efa21b" d="M58.1,36.846c0.628,1.254,1.99,2.125,3.574,2.125c0.388,0,0.761-0.054,1.115-0.151c0.555,0.657,1.413,1.08,2.38,1.08c0.136,0,0.268-0.011,0.399-0.027c1.756,0.55,4.616,0.884,5.479-2.821c-0.663,0.502-1.901,0.637-2.472,0.283c-0.007-0.393-0.101-1.046-0.256-1.386c0.55-0.51,0.893-1.22,0.893-2.008c0-1.55-1.324-2.806-2.957-2.806c-0.012,0-0.023,0.002-0.035,0.002c0.115-0.344,0.177-0.709,0.177-1.089c0-1.992-1.701-3.606-3.799-3.606c-0.361,0-0.708,0.051-1.039,0.14c0.002-0.047,0.008-0.093,0.008-0.14c0-2.36-2.124-4.273-4.743-4.273c-1.514,0-2.859,0.641-3.728,1.636c-0.966-0.599-2.179-0.959-3.501-0.959c-3.141,0-5.688,2.015-5.688,4.501c0,0.11,0.011,0.217,0.021,0.325c-0.738,0.35-1.307,0.92-1.557,1.656c-0.017,0.049,0.454,2.493,0.523,2.769c0.507,0.659,1.286,1.203,2.249,1.493c0.986,0.297,1.982,0.272,2.819-0.004c0.695,2.317,3.376,4.044,6.579,4.044C55.847,37.631,57.066,37.343,58.1,36.846z" />
    <path fill="#b2876b" d="M53.415,71.351h18.097c0.061-0.223-0.077-3.973-3.006-5.961c-0.681-0.462-9.413-3.399-9.413-3.399c-0.555-0.143-0.916-0.546-1.125-0.998c-0.345-0.748-0.195-3.014-0.195-3.014s-2.157,1.305-3.914,1.639c-1.723,0.17-4.688-1.5-4.688-1.5s-0.152,2.206-0.27,2.828c-0.092,0.489-0.61,0.902-1.165,1.045l-7.139,2.383c-0.715,0.19-1.401,0.461-2.004,0.84c-3.151,1.978-3.337,5.914-3.276,6.138H53.415z" />
    <path fill="#00a5a5" d="M68.483,65.337c-0.668-0.439-3.642-1.622-3.642-1.622s-7.453,4.17-10.683,4.829c-5.161,1.052-12,1.667-18.63,0.983l0,0c-0.187,0.775-0.32,1.394-0.331,1.909l18.467-0.085c0,0,17.87,0.049,17.859,0C71.398,70.795,71.358,67.226,68.483,65.337z" />
    <path fill="#6d3c14" d="M43.172,32.586c-0.177,0.031-0.498,0.153-0.639,0.18c-1.115,0.217-1.019,1.159-1.019,1.159l1.05,6.742c0.034-0.583,0.181-5.78,1.835-7.2C44.314,33.425,43.251,32.738,43.172,32.586z" opacity=".34" />
    <path fill="#472b29" d="M51.116 41.965l.549-.817c-1.881-.649-4.109-.811-6.002-.442C45.663 40.705 49.566 41.408 51.116 41.965zM61.354 40.831c-1.94-.449-4.173-.377-6.016.188l.578.848C57.431 41.372 61.354 40.831 61.354 40.831zM48.392 42.512c-.466 0-.875.305-1.111.764.059-.018.12-.031.184-.031.382 0 .692.342.692.763s-.31.763-.692.763c-.125 0-.241-.039-.342-.104.163.691.67 1.195 1.269 1.195.732 0 1.325-.75 1.325-1.675C49.717 43.262 49.124 42.512 48.392 42.512zM58.532 42.512c-.398 0-.753.222-.996.573.076-.032.157-.051.243-.051.382 0 .692.342.692.763 0 .421-.31.763-.692.763-.237 0-.446-.132-.571-.332.017.906.603 1.635 1.324 1.635.732 0 1.325-.75 1.325-1.675C59.857 43.262 59.264 42.512 58.532 42.512z" />
    <path fill="#472b29" d="M53.437,51.138c0.775,0,1.526-0.335,2.012-0.896c0.109-0.126,0.094-0.318-0.034-0.426c-0.128-0.108-0.321-0.093-0.429,0.03c-0.334,0.377-0.898,0.593-1.548,0.593s-1.214-0.216-1.548-0.593c-0.106-0.119-0.303-0.136-0.43-0.03c-0.127,0.108-0.142,0.299-0.033,0.425C51.911,50.803,52.662,51.138,53.437,51.138z" opacity=".41" />
    <path fill="#472b29" d="M59.199,52.371c-0.051-0.063-0.124-0.103-0.206-0.111c-0.082-0.01-0.161,0.014-0.224,0.064c-1.164,0.916-3.108,1.442-5.332,1.442c-2.224,0-4.168-0.525-5.332-1.441c-0.126-0.102-0.33-0.078-0.43,0.046c-0.106,0.129-0.086,0.32,0.044,0.424c1.38,1.114,3.518,1.779,5.717,1.779c2.2,0,4.337-0.665,5.717-1.779C59.285,52.69,59.305,52.5,59.199,52.371z" opacity=".49" />
    <path fill="#472b29" d="M53.682 59.749c-1.83 0-4.772-1.648-4.903-1.722-.12-.068-.163-.221-.095-.341.067-.12.219-.162.341-.095.032.019 3.244 1.816 4.874 1.646 1.657-.168 4.067-1.664 4.091-1.679.117-.073.271-.036.344.079.073.117.038.271-.08.345-.103.064-2.532 1.572-4.305 1.753C53.864 59.745 53.774 59.749 53.682 59.749zM41.552 70.109c-1.997 0-4.021-.111-6.051-.334-.137-.015-.236-.138-.221-.275s.141-.249.276-.221c6.417.703 12.771.277 18.377-1.231 1.634-.44 3.256-.992 4.821-1.641.129-.051.274.008.327.136s-.008.273-.135.327c-1.585.655-3.228 1.214-4.882 1.66C50.173 69.578 45.927 70.109 41.552 70.109zM60.769 66.033c-.093 0-.183-.053-.226-.143-.06-.125-.006-.273.118-.333.765-.364 1.754-.876 2.52-1.304.12-.066.273-.024.34.097s.024.273-.096.341c-.775.432-1.775.949-2.549 1.317C60.842 66.025 60.806 66.033 60.769 66.033z" />
    <path fill="#e2900e" d="M68.575,37.231c-0.007-0.39-0.101-1.038-0.256-1.377c0.55-0.506,0.893-1.212,0.893-1.994c0-1.539-1.324-2.787-2.957-2.787c-0.012,0-0.023,0.002-0.035,0.002c0.115-0.341,0.177-0.704,0.177-1.081c0-1.978-1.701-3.581-3.799-3.581c-0.361,0-0.708,0.05-1.039,0.139c0.002-0.047,0.008-0.092,0.008-0.139c0-2.344-2.124-4.243-4.743-4.243c-1.179,0-2.252,0.389-3.08,1.027c0.388,0.393,0.132-0.054,0.388,0.393c1.239-0.455,3.336-0.16,4.665,0.559c2.3,1.245,3.23,4.579,2.101,6.637c-0.023,0.041-0.05,0.078-0.074,0.118c0.333,0.079,0.663,0.2,0.979,0.372c1.842,0.997,2.564,3.213,1.611,4.95c-0.182,0.331-0.411,0.62-0.677,0.865c0.01,0.005,0.021,0.01,0.032,0.015c0.997,0.54,1.559,1.539,1.567,2.552c0.266,0.071,0.542,0.12,0.833,0.12c0.136,0,0.268-0.011,0.399-0.027c1.756,0.547,4.616,0.878,5.479-2.801C70.384,37.449,69.145,37.582,68.575,37.231z" />
    <path fill="#472b29" d="M67.394,40.588c-0.719,0-1.421-0.183-1.794-0.475c-0.105,0.011-0.211,0.017-0.32,0.017c-0.958,0-1.853-0.381-2.481-1.052c-1.871,0.441-3.841-0.395-4.741-1.931c-1.057,0.466-2.253,0.711-3.474,0.711c-3.185,0-5.93-1.628-6.783-3.989c-0.865,0.231-1.832,0.21-2.748-0.064c-1.104-0.33-2.015-0.979-2.567-1.825c-0.075-0.116-0.042-0.271,0.073-0.346c0.117-0.077,0.271-0.043,0.346,0.072c0.488,0.748,1.302,1.323,2.292,1.62c0.903,0.271,1.858,0.27,2.688-0.003c0.064-0.022,0.134-0.015,0.194,0.016c0.06,0.031,0.104,0.085,0.124,0.149c0.687,2.278,3.312,3.87,6.382,3.87c1.231,0,2.433-0.263,3.474-0.761c0.124-0.057,0.271-0.008,0.331,0.113c0.758,1.504,2.656,2.329,4.43,1.847c0.092-0.026,0.193,0.005,0.256,0.079c0.614,0.723,1.619,1.092,2.576,0.968c0.077-0.007,0.154,0.017,0.209,0.072c0.345,0.348,1.805,0.639,2.753,0.165c0.125-0.06,0.274-0.012,0.335,0.112c0.062,0.123,0.012,0.273-0.112,0.335C68.421,40.497,67.903,40.588,67.394,40.588z" />
    <path fill="#472b29" d="M71.735,71.936H35.288c-0.226,0-0.424-0.152-0.483-0.37c-0.076-0.284,0.019-1.349,0.344-2.455c0.006-0.031,0.016-0.062,0.027-0.092c0.408-1.337,1.282-3.166,3.139-4.366c0.611-0.394,1.336-0.707,2.157-0.933l7.159-2.46c0.469-0.126,0.6-0.507,0.64-0.723c0.089-0.486,0.154-1.235,0.193-2.229c-2.044-1.24-3.779-2.881-5.16-4.88c-0.636-0.921-0.924-1.87-0.88-2.901c0.027-0.618,0.03-1.236,0.027-1.855c-0.651-0.169-1.102-0.636-1.343-1.395c-0.149-0.472-0.427-1.464-0.903-3.515c-0.37-1.149-0.122-1.814,0.149-2.181c0.219-0.296,0.627-0.636,1.372-0.745c-0.117-0.662-0.312-1.827-0.566-3.341c-0.231-1.382-0.471-2.81-0.512-2.998c-0.168-0.781-0.052-1.43,0.346-1.927c0.324-0.406,0.77-0.619,1.147-0.73c-0.468-1.043-0.55-1.956-0.247-2.688c0.316-0.766,0.834-1.375,1.509-1.78c0-0.015,0-0.029,0-0.044c0-2.8,2.792-5.077,6.224-5.077c1.234,0,2.412,0.29,3.432,0.844c0.996-0.979,2.374-1.532,3.843-1.532c2.738,0,4.995,1.927,5.25,4.381c2.582-0.318,4.885,1.652,4.885,4.131c0,0.222-0.018,0.441-0.054,0.659c1.65,0.279,2.887,1.652,2.887,3.3c0,0.801-0.288,1.556-0.817,2.159c0.056,0.168,0.098,0.339,0.126,0.514c0.639-0.044,1.415-0.313,1.935-0.981c0.141-0.181,0.388-0.243,0.596-0.151c0.21,0.093,0.33,0.316,0.291,0.542c-0.414,2.427-1.027,3.868-3.078,4.537c-1.447,0.389-2.643,0.196-3.139,0.102c-0.044,0.064-0.092,0.129-0.142,0.192c0.468,0.154,0.752,0.411,0.923,0.642c0.27,0.365,0.518,1.028,0.162,2.112c-0.489,2.113-0.767,3.105-0.917,3.577c-0.216,0.681-0.601,1.127-1.149,1.334V48.7c-0.001,0.754-0.002,1.508-0.01,2.262c-0.005,0.563-0.229,1.36-0.508,1.814c-1.492,2.43-3.372,4.309-5.588,5.588c0.039,0.972,0.106,1.717,0.195,2.167c0.043,0.22,0.18,0.605,0.607,0.719c1.515,0.523,8.93,3.103,9.637,3.597c3.211,2.244,3.308,6.399,3.224,6.719C72.16,71.784,71.962,71.936,71.735,71.936z M35.801,70.936H71.24c-0.088-1.028-0.624-3.736-2.818-5.27c-0.5-0.335-6.003-2.301-9.356-3.461c-0.65-0.171-1.148-0.729-1.296-1.481c-0.109-0.556-0.185-1.44-0.224-2.63c-0.006-0.188,0.094-0.364,0.259-0.455c2.181-1.196,4.027-3.009,5.488-5.388c0.185-0.301,0.357-0.92,0.36-1.3c0.008-0.752,0.009-1.503,0.01-2.254l0.001-0.476c0-0.249,0.184-0.459,0.43-0.494c0.33-0.047,0.587-0.192,0.765-0.754c0.144-0.454,0.414-1.419,0.883-3.438c0.021-0.091,0.034-0.142,0.035-0.145c0.124-0.379,0.221-0.892-0.015-1.211c-0.187-0.254-0.592-0.404-1.158-0.376c-0.003,0-0.007,0-0.01,0c-0.222,0-0.417-0.146-0.479-0.359c-0.064-0.216,0.025-0.448,0.217-0.566c0.109-0.072,0.58-0.55,0.752-0.893c0.087-0.173,0.27-0.271,0.461-0.275c0.123,0.006,0.208,0.016,0.335,0.041c0.397,0.08,1.453,0.291,2.76-0.059c1.12-0.366,1.692-0.967,2.088-2.398c-0.623,0.316-1.342,0.465-2.05,0.403c-0.254-0.022-0.451-0.234-0.455-0.489c-0.005-0.325-0.075-0.638-0.207-0.93c-0.088-0.194-0.042-0.424,0.114-0.57c0.478-0.446,0.74-1.042,0.74-1.677c0-1.298-1.11-2.354-2.476-2.354c-0.161,0-0.329-0.076-0.423-0.206c-0.094-0.13-0.138-0.296-0.088-0.448c0.102-0.309,0.153-0.628,0.153-0.951c0-1.746-1.491-3.167-3.323-3.167c-0.303,0-0.611,0.042-0.914,0.125c-0.153,0.042-0.318,0.009-0.443-0.091c-0.125-0.1-0.194-0.253-0.188-0.412l0.463-0.111l-0.003-0.011h-0.453c0-2.12-1.917-3.845-4.273-3.845c-1.325,0-2.555,0.543-3.373,1.491c-0.162,0.187-0.435,0.229-0.644,0.097c-0.938-0.589-2.065-0.899-3.258-0.899c-2.88,0-5.224,1.829-5.224,4.077c0,0.092,0.009,0.181,0.018,0.271c0.02,0.208-0.092,0.421-0.28,0.512c-0.598,0.286-1.055,0.779-1.322,1.424c-0.234,0.567-0.065,1.41,0.476,2.374c0.076,0.135,0.119,0.361,0.058,0.504c-0.078,0.184-0.256,0.303-0.455,0.305c-0.008,0-0.76,0.027-1.121,0.479c-0.201,0.252-0.251,0.619-0.149,1.092c0.042,0.197,0.225,1.281,0.521,3.043c0.27,1.612,0.606,3.618,0.662,3.858c0.035,0.15-0.002,0.309-0.099,0.429c-0.097,0.119-0.268,0.186-0.398,0.185c-0.563-0.026-0.966,0.122-1.153,0.375c-0.237,0.32-0.14,0.835-0.016,1.211c0.002,0.008,0.016,0.059,0.037,0.149c0.469,2.019,0.738,2.983,0.882,3.438c0.195,0.614,0.492,0.749,0.909,0.767c0.266,0.012,0.476,0.229,0.478,0.495c0.007,0.778,0.009,1.557-0.025,2.334c-0.035,0.806,0.196,1.555,0.704,2.29c1.355,1.961,3.07,3.556,5.1,4.738c0.159,0.092,0.254,0.265,0.248,0.448c-0.04,1.191-0.114,2.09-0.22,2.671c-0.138,0.754-0.636,1.313-1.333,1.499l-7.155,2.459c-0.753,0.208-1.385,0.479-1.91,0.817c-1.619,1.047-2.381,2.673-2.735,3.853c0,0.001,0,0.002-0.001,0.003c0,0,0,0.001,0,0.002C35.922,70.013,35.836,70.575,35.801,70.936z" />
    <path fill="#8e7469" d="M42.478,43.798c-0.008-0.125-0.01-0.251,0.003-0.375l-0.88,0.181l0.319,1.699l0.355-0.069l-0.252-1.343L42.478,43.798z" opacity=".8" />
    <g opacity=".3">
        <path fill="#ba8964" d="M46.9 47.903A1.814 1.841 0 1 0 46.9 51.585 1.814 1.841 0 1 0 46.9 47.903zM60.848 47.903A1.814 1.841 0 1 0 60.848 51.585 1.814 1.841 0 1 0 60.848 47.903z" opacity=".8" />
    </g>
    <path fill="#8e7469" d="M50.633 45.859A.205.208 0 1 0 50.633 46.275.205.208 0 1 0 50.633 45.859zM50.838 47.443000000000005A.205.208 0 1 0 50.838 47.859.205.208 0 1 0 50.838 47.443000000000005zM52.245 46.577A.205.208 0 1 0 52.245 46.992999999999995.205.208 0 1 0 52.245 46.577z" opacity=".8" />
    <path fill="#8e7469" d="M55.202 46.548A0.205 0.208 0 1 0 55.202 46.964A0.205 0.208 0 1 0 55.202 46.548Z" opacity=".8" transform="rotate(-23.46 55.204 46.757)" />
    <path fill="#8e7469" d="M56.004 47.923A0.205 0.208 0 1 0 56.004 48.339A0.205 0.208 0 1 0 56.004 47.923Z" opacity=".8" transform="rotate(-23.46 56.006 48.132)" />
    <path fill="#8e7469" d="M56.962 46.565000000000005A0.205 0.208 0 1 0 56.962 46.981A0.205 0.208 0 1 0 56.962 46.565000000000005Z" opacity=".8" transform="rotate(-23.46 56.964 46.775)" />
    <path fill="#472b29" d="M43.15,48.531c-0.153,0-0.284-0.117-0.298-0.272l-0.641-6.988c-0.015-0.165,0.106-0.311,0.271-0.326c0.167-0.01,0.311,0.107,0.326,0.271l0.641,6.988c0.015,0.165-0.106,0.311-0.271,0.326C43.169,48.531,43.16,48.531,43.15,48.531z" />
    <path fill="#8e7469" d="M64.5,43.7c0.008-0.125,0.01-0.251-0.003-0.375l0.88,0.181l-0.319,1.699l-0.355-0.069l0.252-1.343L64.5,43.7z" opacity=".8" />
    <path fill="#472b29" d="M63.981,48.433c-0.006,0-0.013,0-0.019,0c-0.166-0.011-0.292-0.152-0.281-0.318l0.415-6.82c0.01-0.166,0.173-0.277,0.317-0.281c0.166,0.011,0.292,0.152,0.281,0.318l-0.415,6.82C64.27,48.311,64.139,48.433,63.981,48.433z" />
    <g>
        <path fill="#472b29" d="M71.038 71.406c-.049 0-.097-.024-.125-.068l-4.825-7.383c-.045-.069-.026-.162.043-.208.069-.045.162-.025.208.044l4.825 7.383c.045.069.026.162-.043.208C71.095 71.398 71.067 71.406 71.038 71.406zM69.553 71.654c-.049 0-.097-.024-.125-.068l-5.388-8.244c-.045-.069-.026-.162.043-.208.07-.045.163-.025.208.044l5.388 8.244c.045.069.026.162-.043.208C69.609 71.646 69.581 71.654 69.553 71.654zM67.714 71.406c-.049 0-.097-.024-.125-.068l-4.354-6.662c-.045-.069-.026-.162.043-.208.069-.045.162-.025.208.044l4.354 6.662c.045.069.026.162-.043.208C67.771 71.398 67.743 71.406 67.714 71.406zM66.213 71.654c-.049 0-.097-.024-.125-.068l-4.158-6.362c-.045-.069-.026-.162.043-.208.069-.045.162-.025.208.044l4.158 6.362c.045.069.026.162-.043.208C66.27 71.646 66.242 71.654 66.213 71.654zM64.658 71.837c-.049 0-.097-.024-.125-.068l-3.081-4.714c-.045-.069-.026-.162.043-.208.069-.045.162-.025.208.044l3.081 4.714c.045.069.026.162-.043.208C64.715 71.829 64.686 71.837 64.658 71.837zM63.046 72.021c-.049 0-.097-.024-.125-.068l-1.231-1.885c-.045-.069-.026-.162.043-.208.07-.045.162-.025.208.044l1.231 1.885c.045.069.026.162-.043.208C63.103 72.013 63.075 72.021 63.046 72.021z" />
    </g>
</svg>