<svg xmlns="http://www.w3.org/2000/svg" baseProfile="basic" viewBox="0 0 100 100">
    <path fill="#c7ede6" d="M87.215,56.71C88.35,54.555,89,52.105,89,49.5c0-6.621-4.159-12.257-10.001-14.478 C78.999,35.015,79,35.008,79,35c0-11.598-9.402-21-21-21c-9.784,0-17.981,6.701-20.313,15.757C36.211,29.272,34.638,29,33,29 c-7.692,0-14.023,5.793-14.89,13.252C12.906,43.353,9,47.969,9,53.5C9,59.851,14.149,65,20.5,65c0.177,0,0.352-0.012,0.526-0.022 C21.022,65.153,21,65.324,21,65.5C21,76.822,30.178,86,41.5,86c6.437,0,12.175-2.972,15.934-7.614C59.612,80.611,62.64,82,66,82 c4.65,0,8.674-2.65,10.666-6.518C77.718,75.817,78.837,76,80,76c6.075,0,11-4.925,11-11C91,61.689,89.53,58.727,87.215,56.71z" />
    <path fill="#fff" d="M15.405,51H5.5C5.224,51,5,50.776,5,50.5S5.224,50,5.5,50h9.905c0.276,0,0.5,0.224,0.5,0.5 S15.682,51,15.405,51z" />
    <path fill="#fff" d="M18.5,51h-1c-0.276,0-0.5-0.224-0.5-0.5s0.224-0.5,0.5-0.5h1c0.276,0,0.5,0.224,0.5,0.5 S18.777,51,18.5,51z" />
    <path fill="#fff" d="M23.491,53H14.5c-0.276,0-0.5-0.224-0.5-0.5s0.224-0.5,0.5-0.5h8.991c0.276,0,0.5,0.224,0.5,0.5 S23.767,53,23.491,53z" />
    <path fill="#fff" d="M12.5,53h-1c-0.276,0-0.5-0.224-0.5-0.5s0.224-0.5,0.5-0.5h1c0.276,0,0.5,0.224,0.5,0.5 S12.777,53,12.5,53z" />
    <path fill="#fff" d="M9.5,53h-2C7.224,53,7,52.776,7,52.5S7.224,52,7.5,52h2c0.276,0,0.5,0.224,0.5,0.5S9.777,53,9.5,53z" />
    <path fill="#fff" d="M15.5,55h-2c-0.276,0-0.5-0.224-0.5-0.5s0.224-0.5,0.5-0.5h2c0.276,0,0.5,0.224,0.5,0.5 S15.776,55,15.5,55z" />
    <path fill="#fff" d="M18.5,46c-0.177,0-0.823,0-1,0c-0.276,0-0.5,0.224-0.5,0.5c0,0.276,0.224,0.5,0.5,0.5 c0.177,0,0.823,0,1,0c0.276,0,0.5-0.224,0.5-0.5C19,46.224,18.776,46,18.5,46z" />
    <path fill="#fff" d="M18.5,48c-0.177,0-4.823,0-5,0c-0.276,0-0.5,0.224-0.5,0.5c0,0.276,0.224,0.5,0.5,0.5 c0.177,0,4.823,0,5,0c0.276,0,0.5-0.224,0.5-0.5C19,48.224,18.776,48,18.5,48z" />
    <path fill="#fff" d="M23.5,50c-0.177,0-2.823,0-3,0c-0.276,0-0.5,0.224-0.5,0.5c0,0.276,0.224,0.5,0.5,0.5 c0.177,0,2.823,0,3,0c0.276,0,0.5-0.224,0.5-0.5C24,50.224,23.776,50,23.5,50z" />
    <path fill="#fff" d="M85.5,46h-10c-0.276,0-0.5-0.224-0.5-0.5s0.224-0.5,0.5-0.5h10c0.276,0,0.5,0.224,0.5,0.5 S85.776,46,85.5,46z" />
    <path fill="#fff" d="M89.5,46h-2c-0.276,0-0.5-0.224-0.5-0.5s0.224-0.5,0.5-0.5h2c0.276,0,0.5,0.224,0.5,0.5 S89.776,46,89.5,46z" />
    <path fill="#fff" d="M94.5,48h-10c-0.276,0-0.5-0.224-0.5-0.5s0.224-0.5,0.5-0.5h10c0.276,0,0.5,0.224,0.5,0.5 S94.777,48,94.5,48z" />
    <path fill="#fff" d="M82.5,48h-1c-0.276,0-0.5-0.224-0.5-0.5s0.224-0.5,0.5-0.5h1c0.276,0,0.5,0.224,0.5,0.5 S82.776,48,82.5,48z" />
    <path fill="#fff" d="M79.375,48H77.5c-0.276,0-0.5-0.224-0.5-0.5s0.224-0.5,0.5-0.5h1.875c0.276,0,0.5,0.224,0.5,0.5 S79.651,48,79.375,48z" />
    <path fill="#fff" d="M88.5,44h-5c-0.276,0-0.5-0.224-0.5-0.5s0.224-0.5,0.5-0.5h5c0.276,0,0.5,0.224,0.5,0.5 S88.777,44,88.5,44z" />
    <path fill="#fff" d="M85.5,50h-2c-0.276,0-0.5-0.224-0.5-0.5s0.224-0.5,0.5-0.5h2c0.276,0,0.5,0.224,0.5,0.5 S85.776,50,85.5,50z" />
    <path fill="#93bc39" d="M66.3,72.3H35.7c-3.314,0-6-2.686-6-6V35.7c0-3.314,2.686-6,6-6h30.6c3.314,0,6,2.686,6,6v30.6 C72.3,69.614,69.614,72.3,66.3,72.3z" />
    <path fill="#472b29" d="M66.3,73H35.7c-3.694,0-6.7-3.006-6.7-6.7V35.7c0-3.694,3.006-6.7,6.7-6.7h30.6 c3.694,0,6.7,3.006,6.7,6.7v30.6C73,69.994,69.994,73,66.3,73z M35.7,30.4c-2.923,0-5.3,2.377-5.3,5.3v30.6 c0,2.922,2.377,5.3,5.3,5.3h30.6c2.923,0,5.3-2.377,5.3-5.3V35.7c0-2.922-2.377-5.3-5.3-5.3H35.7z" />
    <path fill="#fdfcef" d="M56.46,48.991c0,4.689-4.434,8.491-9.906,8.491c-1.25,0-2.448-0.198-3.552-0.566l-2.997,1.767 c-0.212,0.156-0.495-0.061-0.392-0.302l1.015-2.583c-2.415-1.547-3.981-4.019-3.981-6.807c0-4.689,4.434-8.491,9.906-8.491 S56.46,44.302,56.46,48.991z" />
    <path fill="#472b29" d="M39.859,59.241c-0.166,0-0.339-0.056-0.484-0.17c-0.269-0.214-0.358-0.57-0.222-0.886l0.862-2.194 c-2.431-1.699-3.869-4.288-3.869-6.999c0-4.958,4.668-8.991,10.406-8.991s10.407,4.033,10.407,8.991s-4.669,8.991-10.407,8.991 c-1.204,0-2.378-0.175-3.491-0.521l-2.804,1.653C40.146,59.198,40.005,59.241,39.859,59.241z M40.082,58.554l-0.005,0.011 C40.079,58.562,40.08,58.558,40.082,58.554z M39.744,58.259c-0.013,0.006-0.025,0.013-0.036,0.021L39.744,58.259z M46.553,41 c-5.187,0-9.406,3.585-9.406,7.991c0,2.531,1.367,4.859,3.751,6.386c0.201,0.129,0.283,0.382,0.196,0.604l-0.759,1.929l2.412-1.424 c0.125-0.073,0.273-0.09,0.412-0.043c1.076,0.358,2.218,0.54,3.394,0.54c5.188,0,9.407-3.585,9.407-7.991S51.74,41,46.553,41z" />
    <circle cx="43" cy="46" r="1.5" fill="#93bc39" />
    <path fill="#472b29" d="M43,45c0.551,0,1,0.449,1,1s-0.449,1-1,1s-1-0.449-1-1S42.449,45,43,45 M43,44.5 c-0.828,0-1.5,0.672-1.5,1.5s0.672,1.5,1.5,1.5s1.5-0.672,1.5-1.5S43.828,44.5,43,44.5L43,44.5z" />
    <circle cx="50" cy="46" r="1.5" fill="#93bc39" />
    <path fill="#472b29" d="M50,45c0.551,0,1,0.449,1,1s-0.449,1-1,1s-1-0.449-1-1S49.449,45,50,45 M50,44.5 c-0.828,0-1.5,0.672-1.5,1.5s0.672,1.5,1.5,1.5s1.5-0.672,1.5-1.5S50.828,44.5,50,44.5L50,44.5z" />
    <path fill="#fdfcef" d="M62.112,60.023l0.755,2.181c0.053,0.152-0.116,0.285-0.251,0.199l-2.327-1.475 c-1.021,0.364-2.145,0.569-3.326,0.569c-4.636,0-8.395-3.134-8.395-6.996s3.759-6.996,8.395-6.996c4.636,0,8.395,3.134,8.395,6.996 C65.359,56.744,64.09,58.745,62.112,60.023z" />
    <path fill="#472b29" d="M62.707,62.929c-0.124,0-0.249-0.035-0.359-0.104l-2.124-1.346c-1.044,0.344-2.14,0.518-3.261,0.518 c-4.904,0-8.895-3.363-8.895-7.496s3.99-7.496,8.895-7.496c4.905,0,8.896,3.363,8.896,7.496c0,2.231-1.142,4.297-3.148,5.721 l0.63,1.819c0.093,0.268,0.006,0.567-0.217,0.744C63.002,62.881,62.854,62.929,62.707,62.929z M60.289,60.428 c0.094,0,0.187,0.026,0.268,0.078l1.528,0.969l-0.445-1.288c-0.075-0.218,0.008-0.458,0.201-0.583 c1.918-1.239,3.018-3.099,3.018-5.103c0-3.582-3.542-6.496-7.896-6.496s-7.895,2.914-7.895,6.496s3.541,6.496,7.895,6.496 c1.09,0,2.152-0.182,3.158-0.54C60.176,60.438,60.232,60.428,60.289,60.428z" />
    <circle cx="54.25" cy="52.25" r="1.25" fill="#93bc39" />
    <path fill="#472b29" d="M54.25,51.5c0.414,0,0.75,0.336,0.75,0.75S54.664,53,54.25,53s-0.75-0.336-0.75-0.75 S53.836,51.5,54.25,51.5 M54.25,51c-0.69,0-1.25,0.56-1.25,1.25s0.56,1.25,1.25,1.25s1.25-0.56,1.25-1.25S54.94,51,54.25,51 L54.25,51z" />
    <circle cx="59.75" cy="52.25" r="1.25" fill="#93bc39" />
    <path fill="#472b29" d="M59.75,51.5c0.414,0,0.75,0.336,0.75,0.75S60.164,53,59.75,53S59,52.663,59,52.25 S59.336,51.5,59.75,51.5 M59.75,51c-0.69,0-1.25,0.56-1.25,1.25s0.56,1.25,1.25,1.25S61,52.94,61,52.25S60.44,51,59.75,51L59.75,51z" />
    <path fill="#472b29" d="M42.5,70h-7c-1.93,0-3.5-1.57-3.5-3.5v-2c0-0.276,0.224-0.5,0.5-0.5s0.5,0.224,0.5,0.5v2 c0,1.378,1.121,2.5,2.5,2.5h7c0.276,0,0.5,0.224,0.5,0.5S42.776,70,42.5,70z" />
    <path fill="#472b29" d="M32.5,50c-0.276,0-0.5-0.224-0.5-0.5v-14c0-1.93,1.57-3.5,3.5-3.5h12.954c0.276,0,0.5,0.224,0.5,0.5 s-0.224,0.5-0.5,0.5H35.5c-1.379,0-2.5,1.122-2.5,2.5v14C33,49.776,32.776,50,32.5,50z" />
    <path fill="#472b29" d="M56.5,33h-5c-0.276,0-0.5-0.224-0.5-0.5s0.224-0.5,0.5-0.5h5c0.276,0,0.5,0.224,0.5,0.5 S56.776,33,56.5,33z" />
    <path fill="#472b29" d="M66.5,70h-21c-0.276,0-0.5-0.224-0.5-0.5s0.224-0.5,0.5-0.5h21c1.379,0,2.5-1.122,2.5-2.5v-31 c0-1.378-1.121-2.5-2.5-2.5h-7c-0.276,0-0.5-0.224-0.5-0.5s0.224-0.5,0.5-0.5h7c1.93,0,3.5,1.57,3.5,3.5v31 C70,68.43,68.43,70,66.5,70z" />
    <path fill="#472b29" d="M61.299,58.779c-0.082,0-0.162-0.041-0.21-0.114c-0.075-0.116-0.042-0.271,0.074-0.346 c1.418-0.917,2.269-2.246,2.333-3.646c0.007-0.138,0.132-0.252,0.262-0.238c0.138,0.006,0.244,0.123,0.238,0.261 c-0.072,1.563-1.006,3.037-2.562,4.042C61.393,58.767,61.346,58.779,61.299,58.779z" />
    <path fill="#472b29" d="M63.666,53.921c-0.116,0-0.221-0.082-0.245-0.2C63.347,53.357,63.22,53,63.043,52.66 c-0.063-0.123-0.016-0.273,0.106-0.337c0.123-0.064,0.273-0.016,0.337,0.106c0.198,0.381,0.341,0.782,0.425,1.191 c0.027,0.135-0.06,0.268-0.195,0.295C63.699,53.919,63.683,53.921,63.666,53.921z" />
    <path fill="#472b29" d="M41.572,54.575c-0.047,0-0.093-0.013-0.135-0.04c-2.024-1.297-3.223-3.251-3.288-5.361 c-0.004-0.138,0.104-0.253,0.242-0.258c0.152,0.007,0.254,0.104,0.258,0.242c0.06,1.943,1.174,3.749,3.058,4.956 c0.116,0.074,0.15,0.229,0.076,0.345C41.735,54.534,41.654,54.575,41.572,54.575z" />
    <path fill="#472b29" d="M39.864,45.387c-0.057,0-0.114-0.02-0.161-0.059c-0.105-0.089-0.119-0.247-0.03-0.352 c0.254-0.301,0.54-0.587,0.851-0.853c0.104-0.09,0.263-0.077,0.352,0.027c0.09,0.105,0.078,0.263-0.027,0.353 c-0.289,0.248-0.556,0.516-0.792,0.795C40.006,45.357,39.936,45.387,39.864,45.387z" />
    <path fill="#472b29" d="M38.537,47.991c-0.019,0-0.037-0.002-0.056-0.006c-0.135-0.031-0.219-0.165-0.188-0.299 c0.12-0.528,0.315-1.045,0.579-1.538c0.066-0.122,0.216-0.168,0.339-0.102c0.122,0.065,0.167,0.217,0.103,0.338 c-0.243,0.453-0.423,0.928-0.532,1.413C38.755,47.912,38.651,47.991,38.537,47.991z" />
    <path fill="#472b29" d="M32.5,62c-0.276,0-0.5-0.224-0.5-0.5v-3c0-0.276,0.224-0.5,0.5-0.5s0.5,0.224,0.5,0.5v3 C33,61.776,32.776,62,32.5,62z" />
    <g>
        <path fill="#fdfcef" d="M78.5,76.5c0,0,1.567,0,3.5,0s3.5-1.567,3.5-3.5c0-1.781-1.335-3.234-3.055-3.455 C82.473,69.366,82.5,69.187,82.5,69c0-1.933-1.567-3.5-3.5-3.5c-1.032,0-1.95,0.455-2.59,1.165 c-0.384-1.808-1.987-3.165-3.91-3.165c-2.209,0-4,1.791-4,4c0,0.191,0.03,0.374,0.056,0.558C68.128,67.714,67.592,67.5,67,67.5 c-1.228,0-2.245,0.887-2.455,2.055C64.366,69.527,64.187,69.5,64,69.5c-1.933,0-3.5,1.567-3.5,3.5s1.567,3.5,3.5,3.5s7.5,0,7.5,0 V77h7V76.5z" />
        <path fill="#472b29" d="M80.25,72C80.112,72,80,71.888,80,71.75c0-1.223,0.995-2.218,2.218-2.218 c0.034,0.009,0.737-0.001,1.244,0.136c0.133,0.036,0.212,0.173,0.176,0.306c-0.036,0.134-0.173,0.213-0.306,0.176 c-0.444-0.12-1.1-0.12-1.113-0.118c-0.948,0-1.719,0.771-1.719,1.718C80.5,71.888,80.388,72,80.25,72z" />
        <circle cx="73.5" cy="76.5" r=".5" fill="#472b29" />
        <path fill="#472b29" d="M82,77h-3.5c-0.276,0-0.5-0.224-0.5-0.5s0.224-0.5,0.5-0.5H82c1.654,0,3-1.346,3-3 c0-1.496-1.125-2.768-2.618-2.959c-0.134-0.018-0.255-0.088-0.336-0.196s-0.115-0.244-0.094-0.377C81.975,69.314,82,69.16,82,69 c0-1.654-1.346-3-3-3c-0.85,0-1.638,0.355-2.219,1c-0.125,0.139-0.321,0.198-0.5,0.148c-0.182-0.049-0.321-0.195-0.36-0.379 C75.58,65.165,74.141,64,72.5,64c-1.93,0-3.5,1.57-3.5,3.5c0,0.143,0.021,0.28,0.041,0.418c0.029,0.203-0.063,0.438-0.242,0.54 c-0.179,0.102-0.396,0.118-0.556-0.01C67.878,68.155,67.449,68,67,68c-0.966,0-1.792,0.691-1.963,1.644 c-0.048,0.267-0.296,0.446-0.569,0.405C64.314,70.025,64.16,70,64,70c-1.654,0-3,1.346-3,3s1.346,3,3,3h7.5 c0.276,0,0.5,0.224,0.5,0.5S71.776,77,71.5,77H64c-2.206,0-4-1.794-4-4s1.794-4,4-4c0.059,0,0.116,0.002,0.174,0.006 C64.588,67.82,65.711,67,67,67c0.349,0,0.689,0.061,1.011,0.18C68.176,64.847,70.126,63,72.5,63c1.831,0,3.466,1.127,4.153,2.774 C77.333,65.276,78.155,65,79,65c2.206,0,4,1.794,4,4c0,0.048-0.001,0.095-0.004,0.142C84.739,69.59,86,71.169,86,73 C86,75.206,84.206,77,82,77z" />
        <path fill="#472b29" d="M76.5,76c-0.159,0-0.841,0-1,0c-0.276,0-0.5,0.224-0.5,0.5c0,0.276,0.224,0.5,0.5,0.5 c0.159,0,0.841,0,1,0c0.276,0,0.5-0.224,0.5-0.5C77,76.224,76.776,76,76.5,76z" />
    </g>
    <g>
        <path fill="#fdfcef" d="M43.875,34.5c0,0,3.64,0,6.125,0s4.5-2.015,4.5-4.5c0-2.333-1.782-4.229-4.055-4.455 C50.467,25.364,50.5,25.187,50.5,25c0-2.485-2.015-4.5-4.5-4.5c-1.438,0-2.703,0.686-3.527,1.736 C42.333,19.6,40.171,17.5,37.5,17.5c-2.761,0-5,2.239-5,5c0,0.446,0.077,0.87,0.187,1.282C32.045,23.005,31.086,22.5,30,22.5 c-1.781,0-3.234,1.335-3.455,3.055C26.364,25.533,26.187,25.5,26,25.5c-2.485,0-4.5,2.015-4.5,4.5s2.015,4.5,4.5,4.5s9.5,0,9.5,0 h5.375V35h3V34.5z" />
        <path fill="#472b29" d="M37.5,17c-3.033,0-5.5,2.467-5.5,5.5c0,0.016,0,0.031,0,0.047C31.398,22.192,30.71,22,30,22 c-1.831,0-3.411,1.261-3.858,3.005C26.095,25.002,26.048,25,26,25c-2.757,0-5,2.243-5,5s2.243,5,5,5h14.875 c0.276,0,0.5-0.224,0.5-0.5s-0.224-0.5-0.5-0.5H26c-2.206,0-4-1.794-4-4s1.794-4,4-4c0.117,0,0.23,0.017,0.343,0.032l0.141,0.019 c0.021,0.003,0.041,0.004,0.062,0.004c0.246,0,0.462-0.185,0.495-0.437C27.232,24.125,28.504,23,30,23 c0.885,0,1.723,0.401,2.301,1.1c0.098,0.118,0.241,0.182,0.386,0.182c0.078,0,0.156-0.018,0.228-0.056 c0.209-0.107,0.314-0.346,0.254-0.573C33.054,23.218,33,22.852,33,22.5c0-2.481,2.019-4.5,4.5-4.5c2.381,0,4.347,1.872,4.474,4.263 c0.011,0.208,0.15,0.387,0.349,0.45c0.05,0.016,0.101,0.024,0.152,0.024c0.15,0,0.296-0.069,0.392-0.192 C43.638,21.563,44.779,21,46,21c2.206,0,4,1.794,4,4c0,0.117-0.017,0.23-0.032,0.343l-0.019,0.141 c-0.016,0.134,0.022,0.268,0.106,0.373c0.084,0.105,0.207,0.172,0.34,0.185C52.451,26.247,54,27.949,54,30c0,2.206-1.794,4-4,4 h-6.125c-0.276,0-0.5,0.224-0.5,0.5s0.224,0.5,0.5,0.5H50c2.757,0,5-2.243,5-5c0-2.397-1.689-4.413-4.003-4.877 C50.999,25.082,51,25.041,51,25c0-2.757-2.243-5-5-5c-1.176,0-2.293,0.416-3.183,1.164C42.219,18.76,40.055,17,37.5,17L37.5,17z" />
        <path fill="#472b29" d="M36,24c-1.403,0-2.609,0.999-2.913,2.341C32.72,26.119,32.301,26,31.875,26 c-1.202,0-2.198,0.897-2.353,2.068C29.319,28.022,29.126,28,28.937,28c-1.529,0-2.811,1.2-2.918,2.732 C26.01,30.87,26.114,30.99,26.251,31c0.006,0,0.012,0,0.018,0c0.13,0,0.24-0.101,0.249-0.232c0.089-1.271,1.151-2.268,2.419-2.268 c0.229,0,0.47,0.042,0.738,0.127c0.022,0.007,0.045,0.01,0.067,0.01c0.055,0,0.11-0.02,0.156-0.054 C29.962,28.537,30,28.455,30,28.375c0-1.034,0.841-1.875,1.875-1.875c0.447,0,0.885,0.168,1.231,0.473 c0.047,0.041,0.106,0.063,0.165,0.063c0.032,0,0.063-0.006,0.093-0.019c0.088-0.035,0.148-0.117,0.155-0.212 C33.623,25.512,34.712,24.5,36,24.5c0.208,0,0.425,0.034,0.682,0.107c0.023,0.007,0.047,0.01,0.07,0.01 c0.109,0,0.207-0.073,0.239-0.182c0.038-0.133-0.039-0.271-0.172-0.309C36.517,24.04,36.256,24,36,24L36,24z" />
        <path fill="#472b29" d="M49.883,25.5c-1.326,0-2.508,0.897-2.874,2.182c-0.038,0.133,0.039,0.271,0.172,0.309 C47.205,27.997,47.228,28,47.25,28c0.109,0,0.209-0.072,0.24-0.182C47.795,26.748,48.779,26,49.883,26 c0.117,0,0.23,0.014,0.342,0.029c0.012,0.002,0.023,0.003,0.035,0.003c0.121,0,0.229-0.092,0.246-0.217 c0.019-0.137-0.077-0.263-0.214-0.281C50.158,25.516,50.022,25.5,49.883,25.5L49.883,25.5z" />
    </g>
</svg>